<svg xmlns="http://www.w3.org/2000/svg" viewBox="0 0 542 905"><defs><style>.cls-1{fill:#618a37;}.cls-2{fill:#506d2e;opacity:0.66;}.cls-3{fill:#604d3b;}.cls-4{fill:#bfdf8e;}</style></defs><title>Artboard 3</title><g id="alder"><path class="cls-1" d="M191.75,134.71S169.61,22.3,290.54,8.67c103-11.61,115.82,131.15,115.82,131.15s68.67-26.88,83.46,18.74c20.44,63-44.28,117.53-44.28,117.53S529,274.38,529,334s-54.51,92-54.51,92,39.49,42.54,29,74.94c-22.14,68.13-177.69,32.85-177.69,32.85s-27.07,81.7-89.22,72.56c-57.91-8.51-60.12-74.75-60.12-74.75s-144.78,8.52-161.81-92C-2.13,340.82,128.73,293.12,128.73,293.12s-95.39-52.8-61.32-127.75C94.16,106.53,191.75,134.71,191.75,134.71Z"/><path class="cls-2" d="M122.46,355c-13.06-5-20.47-23.12-9.38-33.8,13-12.52,35.51-13.4,52.34-16,6.8-1.05,6-9.85,1.71-13A316.72,316.72,0,0,1,125,254.41c-8.85-9.45-21-22.83-10.73-35.31,23.69-28.84,61.66-14.21,93.14-15.49,4.29-.17,8.54-4.47,6.88-9a71.54,71.54,0,0,0-7.92-15.1c-3.18-4.81-7.3-9.84-8.78-15.52-3.45-13.24,13.2-15.29,22.22-12.72,11.06,3.16,26,16.26,36.43,5.36a22.39,22.39,0,0,0,4-6.54c.45-1,.87-2.06,1.29-3.1,1.79-4.41-.59,1,.27-.66s1.86-3.43,2.9-5.09c7.09-11.28,16-21.54,25.3-31,12.22-12.4,26.1-24,42.16-31.06,16.81-7.41,35.2-7.39,49.83,4.68,7,5.81,17.19-4.24,10.09-10.09C376.5,60.88,357.48,56.63,338,62c-18.74,5.14-35.25,17-49.47,29.87a220.36,220.36,0,0,0-33.3,37.89,79.81,79.81,0,0,0-7.43,13.41c-1.22,2.73-.95,3.8-3.89,2.87-3.77-1.19-7.4-3.53-11-5.09-6.77-2.9-13.92-5.34-21.38-5.28-13.94.13-28.15,9.29-28.64,24.29-.49,15.21,12.85,25.13,17.67,38.42l6.89-9c-21.88.88-43.47-5.29-65.3-1.7-16.1,2.64-33,12.65-41.84,26.52-10.17,15.9-.81,33,10.24,45.56,14.69,16.71,31.64,31.48,49.46,44.75l1.71-13c-21.23,3.29-51.77,5.41-63.91,26.35-11.48,19.77,1.06,43.41,21,51,8.59,3.27,12.3-10.53,3.79-13.77Z"/><path class="cls-2" d="M397.51,140.67c6.5,10.52,2,19.72-5.71,28.1-5.08,5.53.05,13.08,6.95,11.93,22.08-3.71,46.77,5.67,55.41,27.54,7.91,20-2.38,44.28-18.66,57-7.23,5.66,2.93,15.69,10.09,10.1,21.39-16.72,32-48.86,21-74.19-12.12-27.84-43.08-39-71.62-34.22l6.95,11.93c12-13.1,18-29.16,7.93-45.4-4.81-7.8-17.17-.64-12.32,7.21Z"/><path class="cls-2" d="M475.48,293.43c20.35,10.86,28,33.61,20.75,55.1a69.45,69.45,0,0,1-19.43,29.26c-8.5,7.55-18.81,12.86-28,19.57-3.29,2.41-5.39,8.06-1.45,11.2,11,8.76,16.91,24,20.16,37.25,2.38,9.73,4.08,20.35-6,25.76s-22.77,5.81-33.82,6.5c-11.82.73-23.87.66-35.51,3-9,1.83-5.19,15.59,3.79,13.77,20.85-4.23,42.71-.76,63.3-7.1,9.21-2.84,18.18-7.94,22.1-17.17,4.57-10.73,1.49-24.1-1.88-34.74-4.22-13.35-10.87-28.42-22.08-37.38L456,409.68c11.16-8.17,23.73-14.6,33.62-24.4a83.46,83.46,0,0,0,21.5-36.81c7.09-26.37-4.16-54.39-28.47-67.37-8.11-4.32-15.32,8-7.21,12.33Z"/><path class="cls-2" d="M359.31,477.84c-26.39-4.58-48.94,14.62-70.89,26.23-23.34,12.35-48.41,22.21-75.1,23-9.17.27-9.21,14.55,0,14.27,25.66-.78,49.94-9,72.84-20.15,11.42-5.58,22.4-12,33.37-18.37,10.7-6.25,23.08-13.48,36-11.24,9,1.56,12.84-12.2,3.8-13.77Z"/><path class="cls-3" d="M123.54,358.91,164,382.7s20.24,172.42,95,172.42,103.67-74.88,103.67-74.88l35.69-2.38S328,612.62,310.71,618.37s1,169.11,12.49,174.86S409,864.57,432.44,868c.37.06-11.5,28.75-40.25,11.5s-69-40.24-97.74-34.49-15.37,15.09-15.37,15.09,15.37,42.4-19.13,36.65-46-17.25-40.25-46-103.49,28.74-103.49,28.74-40.24,17.25-46,0,108.42-93.36,116.94-96,14.3-67.36,14.3-101.86,0-86.24-11.49-92S84.28,376.75,123.54,358.91Z"/><path class="cls-4" d="M247.5,158.15S294.57,54.33,376.24,75.09,391.47,172,391.47,172s63.68,2.77,67.83,41.53-23.53,51.22-23.53,51.22,72,13.84,72,62.29-60.91,77.52-60.91,77.52,40.15,38.76,23.54,60.91-131.51,16.62-131.51,16.62S240.6,542.45,182.44,525c-55.38-16.61-36-67.83-36-67.83S111.84,426.71,122.91,406s54-20.77,54-20.77S98,368.57,102.15,334c3.55-29.6,63.68-37.37,63.68-37.37s-67.19-43.48-59.53-66.45c16.61-49.84,102.44-30.46,102.44-30.46s-26.3-33.22-11.07-48.45S247.5,158.15,247.5,158.15Z"/></g></svg>