<svg id="beech" xmlns="http://www.w3.org/2000/svg" viewBox="0 0 732 964"><defs><style>.cls-1{fill:#1b6837;}.cls-2{opacity:0.35;}.cls-3{fill:#334937;}.cls-4{fill:#604d3b;}.cls-5{fill:#695241;}.cls-6{fill:#107d3a;}</style></defs><title>Artboard 2</title><path class="cls-1" d="M361.14,561.39s-71.49,49-127.85,16.76S203,531.74,203,531.74,46.32,547.21,23,428.6s78.36-143.1,78.36-143.1-36.55-47.73-18-73.38c23.44-32.39,67.85-16.77,67.48-16.86s-8.27-40.4,9.62-51.39c34.67-21.3,57.74,16.58,57.74,16.58S229.16,5.75,319.9,12.2,468.37,155.3,468.37,155.3s111.35-72.2,140.22-6.45-5.5,114.74-5.5,114.74,98.24,83.61,69.75,115.29S552.23,506,544,543.34s-81.11,24.5-81.11,24.5Z"/><g class="cls-2"><path class="cls-3" d="M229.6,288.64c-11.19,1.24-22.52.67-32.68,6-5.09,2.68-9.29,6.71-13.44,10.5-3.69,3.39-7.31,6.84-10.83,10.39-15.34,15.45-30.56,33.28-36.82,53.94-6.52,21.51-1,44.06,8.31,64a138.13,138.13,0,0,0,39.27,49.06c20.57,16.28,44.33,27.48,69.25,36.68,3.49,1.29,8.78.25,11.88-1.45s6.25-5.2,7.09-8.64c2-8.33-2.72-14.82-10.77-17.79-2.24-.83-4.46-1.67-6.68-2.53-2.53-1,.51.27.83.33a11.3,11.3,0,0,1-1.89-.76l-3.78-1.57q-7.05-3-13.92-6.35a195.72,195.72,0,0,1-26.12-15.27l-1.23-.87c-1.65-1.16,2.3,1.73.7.5-.92-.71-1.86-1.4-2.77-2.12-2-1.53-3.89-3.1-5.76-4.73a127.47,127.47,0,0,1-10.55-10.23q-1-1.14-2.07-2.31c-.67-.77-3.05-4-.49-.52-1.34-1.85-2.84-3.61-4.18-5.46a130,130,0,0,1-7.62-11.78c-1.09-1.92-2.13-3.85-3.12-5.82-.49-1-1-2-1.44-3-1.18-2.46.46.8.39.88.15-.18-.83-1.94-.92-2.15a99.59,99.59,0,0,1-4.32-12.71c-.58-2.2-1.08-4.41-1.48-6.64-.08-.45-.15-.89-.23-1.33-.44-2.49.2,1,.16,1.19a16.46,16.46,0,0,0-.36-3.53c-.34-4.39.33-8.64.31-13,0,.23-.65,3.7-.15,1.3.09-.41.16-.84.25-1.25q.3-1.47.69-2.91a55.74,55.74,0,0,1,2.14-6.35c.2-.53.5-1.07.66-1.6,0-.1-1.37,2.9-.66,1.46.46-.93.9-1.87,1.38-2.79,1.11-2.17,2.33-4.29,3.62-6.36a128,128,0,0,1,8.27-11.74c.35-.44,2.74-3.38,1.25-1.59s.88-1,1.33-1.55q2.42-2.81,4.92-5.53A276.66,276.66,0,0,1,210.48,321a11.29,11.29,0,0,0,1.47-1.21c-.35.46-2.67,1.72-.93.73.66-.37,4.42-2.1,1.83-1.11s.75-.17,1.53-.36a12.92,12.92,0,0,1,3.47-.67c.32,0-3.84.35-2.1.28.68,0,1.36-.13,2-.18,1.14-.09,2.27-.15,3.41-.22,2.81-.17,5.61-.35,8.4-.66,4.23-.46,7.78-1.3,10.91-4.23,2.67-2.51,4.68-6.63,4.51-10.23-.34-7.07-6.84-15.4-15.42-14.46Z"/><path class="cls-3" d="M232.7,302a55.59,55.59,0,0,1-7.37-4c-2.33-1.46,3,2.37.89.67-.53-.42-1.07-.83-1.6-1.27-1-.87-2.05-1.79-3-2.74s-1.88-2-2.79-3c-1.83-2,2.3,3,.67.81-.41-.55-.84-1.09-1.24-1.64a67,67,0,0,1-4.45-7.07c-.68-1.25-1.33-2.51-1.94-3.78-.48-1-1.3-3.47.36.85-.17-.45-.38-.88-.57-1.32-1.22-2.91-2.3-5.88-3.25-8.88a147.9,147.9,0,0,1-4.29-17.16c-.51-2.62-1-5.26-1.37-7.9-.11-.72-.21-1.43-.32-2.14.76,4.86.3,2.09.16,1-.19-1.39-.37-2.79-.53-4.18-.63-5.21-1.13-10.43-1.59-15.64a66.51,66.51,0,0,1-.36-8.81c.06-1.47.22-2.94.37-4.41.31-3.26-.67,3.48,0,.22.24-1.22.45-2.45.72-3.67A99.09,99.09,0,0,1,204,197.84c.6-1.8,1.23-3.59,1.92-5.36.33-.87.68-1.73,1-2.59.24-.56.47-1.13.71-1.69.64-1.44.48-1.11-.45,1a62.51,62.51,0,0,0,3.74-7.05c-1.3,2.68-2.5,2.86-1.18,1.63,1.56-1.45-3.61,2.35-1.77,1.33s-4.27,1.41-2.22.86c2.65-.71-3.75.13-2.35.21.73,0,1.52,0,2.26,0-5.5,0-3.05-.45-1.08.08.9.24,1.78.53,2.65.85l.9.33c2.17.77-4.38-1.79-1.47-.58,4.23,1.77,8.48,3.87,13,4.7,8.9,1.63,17.84-1,22.64-8.64,2.21-3.53,2.86-7,3.3-11,.14-1.32.2-2.63.27-3.95.05-.77.11-1.53.18-2.29.13-1.33,1.09-4.57-.09.28a67,67,0,0,1,1.69-6.77c.18-.51.49-1.06.62-1.59-.87,3.76-1.41,2.85-.64,1.48.5-.89,1-1.78,1.57-2.63.27-.4.62-.77.87-1.18-2.41,3.84-2.19,2.48-1.17,1.51.66-.63,1.34-1.23,2-1.84,1.64-1.45-3.59,2.29-1.66,1.22.32-.18.63-.39.95-.57,1.65-.94,4.63-1.38-.67.06,1.78-.48,3.48-.93,5.3-1.29-5.6,1.1-3,.34-1.27.27,1.14-.05,2.29,0,3.43,0,1.74.09,6,1.09-.06-.13,1,.21,2.07.32,3.1.53a70.88,70.88,0,0,1,7.36,1.89c1.07.33,2.12.68,3.17,1,1.43.51,6,2.58.53.14,2.22,1,4.48,1.89,6.68,2.93a146.11,146.11,0,0,1,22.3,13c3,2.12,8.48,2.34,11.88,1.46,3.58-.92,7.46-3.51,9.22-6.64,1.89-3.36,2.84-7.42,1.55-11.15s-3.7-6.23-7.08-8.64a147.34,147.34,0,0,0-20.31-12.08c-9.09-4.48-19-8.64-29.18-10.26-11.26-1.79-23.53-1.61-33.21,4.9-12.44,8.38-16.9,21.66-17.87,35.5-.1,1.39-.22,2.8-.26,4.19.16-5,.14-2.3-.21-.62.67-3.18,1.78-3.57.86-2.18a9.91,9.91,0,0,1,4.43-4.1c-1.35.77-1.49.21,2.62-1-2.43.69,4.63-.36,2.58-.29-3.26.1,4.34,1.06,1.66.23-.77-.24-1.55-.42-2.32-.68l-1.22-.44c-2.12-.74,4.1,1.67,2,.79l-3.05-1.26c-5.8-2.37-11.36-4.66-17.82-4.71a24.33,24.33,0,0,0-20.68,11.14c-2.28,3.44-3.85,7.62-5.47,11.33a120.32,120.32,0,0,0-4.32,11.38,93.25,93.25,0,0,0-4.7,25.62c-.16,5.59.66,11.27,1.23,16.82q1,10.27,2.66,20.47c4.31,27.4,14.85,60.34,44,73,3.86,1.67,7.64,2.55,11.88,1.46,3.58-.93,7.46-3.52,9.22-6.65,3.59-6.37,2.29-16.4-5.53-19.78Z"/><path class="cls-3" d="M314.21,161.71q7.16-14.4,14.3-28.8a139,139,0,0,1,14.54-24c1.56-2-2.28,2.67,0,0,.56-.65,1.13-1.29,1.71-1.93,1.45-1.59,3-3.14,4.54-4.64s3-2.77,4.57-4.07q1.18-1,2.4-1.92c2.63-2-2,1.29.07-.08A74.87,74.87,0,0,1,367.45,90l1.2-.53c2.3-1-1,.42-1.23.48,1-.25,1.95-.7,2.91-1a56.14,56.14,0,0,1,6-1.54c.6-.12,4.73-.76,1.92-.36s1.26,0,2-.08a67.6,67.6,0,0,1,7.4.22c2.05.14-3.29-.55-1.26-.15.63.12,1.27.21,1.9.33,1.3.25,2.58.54,3.85.88s2.62.76,3.91,1.2a6.79,6.79,0,0,0,1.47.52q-2.81-1.12-1.21-.47l1.49.65c7.28,3.22,17,2.13,21.1-5.19,3.61-6.42,2.25-16.33-5.53-19.78-11-4.88-23.07-8-35.38-7A77,77,0,0,0,346.4,67.8C328.17,78.14,314.28,94.42,305,112.18c-6,11.54-11.63,23.29-17.41,34.93-1.79,3.6-2.72,7.18-1.55,11.14a14.88,14.88,0,0,0,7.08,8.64c6.82,3.38,17.47,2.14,21.1-5.18Z"/><path class="cls-3" d="M512.28,143c-.42,11.93-.58,23.87-1.46,35.78-.26,3.46-.57,6.92-1,10.37-.17,1.48-.39,3-.56,4.44.63-5.44-.1.44-.35,1.79a82,82,0,0,1-1.87,8.18c-.36,1.26-.76,2.51-1.24,3.74-.18.48-.42,1-.58,1.44,1.56-4.64,1.19-2.59.49-1.31-3.66,6.73-2.11,16,5.54,19.78,7,3.49,17.18,2,21.09-5.19,6.9-12.67,8-27.74,9.16-41.69,1-12.43,1.14-24.88,1.58-37.33.27-7.56-7.28-14.8-15.42-14.46-8.58.36-15.13,6.36-15.42,14.46Z"/><path class="cls-3" d="M493.55,261.91a184.19,184.19,0,0,1,23.1-11.29c.45-.18,4.15-1.66,1.86-.77s1.35-.52,1.91-.73q3.52-1.34,7.1-2.58,6.5-2.28,13.13-4.22c4.07-1.19,8.18-2.28,12.34-3.21,1.45-.32,2.9-.64,4.37-.88s3.77-.21-1.8.22l2-.21c7.08-.65,14.24-.78,21.35-.72,3.93,0,7.86.13,11.78.38,1.71.1,3.41.26,5.11.42,3,.27-4.13-.68-1.43-.18.66.12,1.32.22,2,.36,7.86,1.65,17.06-2.24,19-10.1,1.78-7.34-2.35-16-10.77-17.79-7.16-1.51-14.73-1.8-22.05-2-7.56-.16-15.16-.07-22.7.49-17.63,1.29-34.69,7-50.89,13.37-10.65,4.18-21.17,8.66-31,14.43-6.82,4-10.14,13.07-5.53,19.78,4.4,6.41,13.79,9.5,21.1,5.19Z"/></g><path class="cls-4" d="M218.07,485.08l51.76,18.82s4.71,65.88,65.88,65.88,65.87-47.06,65.87-47.06l37.65,14.12s-47.06,80-61.18,84.7,2.76,239.64,12.17,244.35,70.21,58.39,89.41,61.17c.31.05-9.41,23.53-32.94,9.41s-56.47-32.94-80-28.23-12.58,12.36-12.58,12.36,12.58,34.69-15.66,30-37.64-14.12-32.93-37.65-84.7,23.53-84.7,23.53-32.94,14.12-37.65,0,88.74-76.41,95.71-78.57,9.76-156.37,9.76-184.6,0-70.59-9.41-75.29S213.36,494.49,218.07,485.08Z"/><path class="cls-5" d="M335.71,569.78c54.39-9.47,65.87-47.06,65.87-47.06l37.65,14.12s-47.06,80-61.18,84.7,2.76,239.64,12.17,244.35,67.32,51.48,89.41,61.17c11.88,5.22-9.41,23.53-32.94,9.41s-56.47-32.94-80-28.23-6.24,12.29,0,14.12,6.23,30.48-28.24,28.23C337.85,950.55,335.26,569.85,335.71,569.78Z"/><path class="cls-6" d="M302.68,152.72s92.11-136.66,181.46-98,23.38,185.64,23.38,185.64,81.11-36.09,125.1,0,41.24,92.82,41.24,92.82,94.86,96.69,16.5,172.76S425,513.69,425,513.69,420.91,582,328.8,576.86,250.44,506,250.44,506s-72.86-14.19-96.23-90.25,59.11-109.58,59.11-109.58S157,205.57,206.45,164.32,302.68,152.72,302.68,152.72Z"/></svg>