<?xml version="1.0" encoding="utf-8"?>
<!-- Generator: Adobe Illustrator 23.0.2, SVG Export Plug-In . SVG Version: 6.00 Build 0)  -->
<svg version="1.1" id="Capa_1" xmlns="http://www.w3.org/2000/svg" xmlns:xlink="http://www.w3.org/1999/xlink" x="0px" y="0px"
	 viewBox="0 0 512 314.8" style="enable-background:new 0 0 512 314.8;" xml:space="preserve">
<style type="text/css">
	.st0{fill:#BEA495;}
	.st1{fill:#B59786;}
	.st2{fill:#EAB7A1;}
	.st3{fill:#DE8C69;}
	.st4{fill:#E4B13B;}
	.st5{fill:#CD9F35;}
	.st6{fill:#248C71;}
	.st7{fill:#207E66;}
	.st8{fill:#E3E4E5;}
</style>
<path class="st0" d="M418.3,151.6L405.3,46l-24.4,3l0,0l-47.2-26.6c-5-2.8-10.8-4.1-16.6-3.5l-74.6,6.9c-9.2,0.8-17.4,6.1-22,14
	l-52.6,90.5c-3.9,6.7-0.8,15.3,6.4,18l2.2,0.8c4.1,1.6,8.4,2.5,12.6,2.8l-6.7,5.8l-13.3,11.6l-37.9,32.3c-6.7,5.9-7.4,16.1-1.6,22.9
	l3.8,4.4c7.6,8.7,20.7,9.6,29.4,2l14.5,16.6c4.7,5.4,11.6,7.8,18.2,7c4-0.5,7.9-2.1,11.1-5l14.5,16.6c4.7,5.4,11.6,7.8,18.3,7
	c4-0.5,7.9-2.1,11.1-5l7.9,6.8c7.6,8.7,20.7,9.6,29.4,2l10.7-9.3l89.9-70l0.1-0.1l35.5,0L418.3,151.6z"/>
<path class="st1" d="M379.7,170.3L379.7,170.3l-90,70.1l-10.7,9.3c-8.7,7.6-21.8,6.7-29.4-2l-7.9-6.8c-3.2,2.8-7.1,4.5-11.1,5
	c-6.6,0.8-13.5-1.6-18.3-7l-14.5-16.6c-3.2,2.8-7.1,4.5-11.1,5c-6.6,0.8-13.5-1.6-18.2-7l-14.5-16.6c-7.4,6.5-18.1,6.7-25.8,1.2
	c-3.9,5.9-3.6,14,1.3,19.6l3.8,4.4c7.6,8.7,20.7,9.6,29.4,2l14.5,16.6c4.7,5.4,11.6,7.8,18.2,7c4-0.5,7.9-2.1,11.1-5l14.5,16.6
	c4.7,5.4,11.6,7.8,18.3,7c4-0.5,7.9-2.1,11.1-5l7.9,6.8c7.6,8.7,20.7,9.6,29.4,2l10.7-9.3l89.9-70l0.1-0.1l35.5,0l-3.9-31.9
	L379.7,170.3z"/>
<path class="st2" d="M396.1,216l-48.2-41.5L334.5,163l-9.6-8.3l-41.2-35.5l4.8-40.5c1.6-13.7-7-26.5-20.3-30.2l-89.8-24.9
	c-9.5-2.6-19.5,1.8-24,10.6L143,56.2l-48.5-3.3L82.1,158.7l-5.4,45.9l47.2,3.1l0.1,0.1l98.6,85l10.7,9.3c8.7,7.5,21.9,6.5,29.4-2.2
	l14.4-16.7c3.3,2.8,7.2,4.4,11.1,4.9c6.6,0.8,13.5-1.6,18.2-7.1l14.4-16.7c3.3,2.8,7.2,4.5,11.1,4.9c6.6,0.8,13.5-1.7,18.2-7.1
	l14.4-16.7c8.7,7.5,21.9,6.5,29.4-2.2l3.8-4.4C403.6,232.1,402.9,221.9,396.1,216z"/>
<g>
	<path class="st3" d="M396.1,216l-14.7-12.6c4.8,6.3,4.7,15.3-0.7,21.6l-4.1,4.7c-8,9.2-21.9,10.3-31.2,2.3l-15.3,17.7
		c-5,5.8-12.3,8.4-19.3,7.5c-4.2-0.5-8.4-2.2-11.8-5.2l-15.3,17.7c-5,5.8-12.3,8.3-19.3,7.5c-4.2-0.5-8.4-2.2-11.8-5.2l-15.3,17.7
		c-2.9,3.3-6.5,5.6-10.5,6.8l6.5,5.6c8.7,7.5,21.9,6.5,29.4-2.2l14.4-16.7c3.3,2.8,7.2,4.4,11.1,4.9c6.6,0.8,13.5-1.6,18.2-7.1
		l14.4-16.7c3.3,2.8,7.2,4.5,11.1,4.9c6.6,0.8,13.5-1.7,18.2-7.1l14.4-16.7c8.7,7.5,21.9,6.5,29.4-2.2l3.8-4.4
		C403.6,232.1,402.9,221.9,396.1,216z"/>
	<path class="st3" d="M369.5,239.9l-26.4-22.8c-3.1-2.7-7.9-2.4-10.6,0.8c-2.7,3.1-2.4,7.9,0.8,10.6l26.3,22.7l5-5.8
		c2,1.7,4.2,3,6.5,3.8C372.9,246.2,372.2,242.3,369.5,239.9z"/>
	<path class="st3" d="M327.3,268.1c1.8-3.1,1.2-7.1-1.6-9.5L302,238.2c-3.1-2.7-7.9-2.4-10.6,0.8c-2.7,3.1-2.4,7.9,0.8,10.6
		l23.7,20.4c0,0,0,0,0,0l4.9-5.7C322.8,266,325,267.3,327.3,268.1z"/>
</g>
<g>
	<path class="st0" d="M126.4,207.6l-5.7,7.5c-6.2,8.2-4.6,19.9,3.6,26.1l0,0c8.2,6.2,19.9,4.6,26.1-3.6l5.7-7.5
		c6.2-8.2,4.6-19.9-3.6-26.1l0,0C144.3,197.8,132.6,199.4,126.4,207.6z"/>
	<path class="st0" d="M161.2,223.5l-10.8,14.2c-6.2,8.2-4.6,19.9,3.6,26.1l0,0c8.2,6.2,19.9,4.6,26.1-3.6l10.8-14.2
		c6.2-8.2,4.6-19.9-3.6-26.1l0,0C179.1,213.7,167.4,215.3,161.2,223.5z"/>
	<path class="st0" d="M194.8,240.9l-14.7,19.4c-6.2,8.2-4.6,19.9,3.6,26.1l0,0c8.2,6.2,19.9,4.6,26.1-3.6l14.7-19.4
		c6.2-8.2,4.6-19.9-3.6-26.1l0,0C212.8,231,201.1,232.7,194.8,240.9z"/>
	<path class="st0" d="M225.4,262.3l-15.5,20.5c-6.2,8.2-4.6,19.9,3.6,26.1l0,0c8.2,6.2,19.9,4.6,26.1-3.6l15.5-20.5
		c6.2-8.2,4.6-19.9-3.6-26.1l0,0C243.4,252.5,231.7,254.1,225.4,262.3z"/>
	<path class="st0" d="M380.9,48.9l-47.2-26.6c-5-2.8-10.8-4.1-16.6-3.5l-74.6,6.9c-9.2,0.8-17.4,6.1-22,14l-52.6,90.5
		c-3.9,6.7-0.8,15.3,6.4,18l2.2,0.8c19.3,7.3,41,1.1,53.6-15.3l20.1-26.2c0,0,48.4,56.1,101.7-9.4"/>
</g>
<path class="st4" d="M511.9,211.6L487.2,10.9c-0.2-2-1.3-3.8-2.8-5c-1.6-1.2-3.6-1.8-5.5-1.5l-57.8,7.1c-15,1.8-25.7,15.6-23.9,30.6
	l19.8,161.2c1.7,13.9,13.6,24.1,27.2,24.1c1.1,0,2.2-0.1,3.4-0.2l57.8-7.1C509.5,219.5,512.5,215.8,511.9,211.6z"/>
<path class="st5" d="M511.9,211.6l-2.7-22c-1.2,1.8-3.2,3.1-5.5,3.4l-60.6,7.5c-1.2,0.1-2.4,0.2-3.5,0.2c-10.2,0-19.4-5.4-24.6-13.8
	l2,16.4c1.7,13.9,13.6,24.1,27.2,24.1c1.1,0,2.2-0.1,3.4-0.2l57.8-7.1C509.5,219.5,512.5,215.8,511.9,211.6z"/>
<path class="st6" d="M90.9,11.5L33.1,4.4c-2-0.2-4,0.3-5.5,1.5c-1.6,1.2-2.6,3-2.8,5L0.1,211.6c-0.5,4.1,2.4,7.9,6.5,8.4l57.8,7.1
	c1.1,0.1,2.3,0.2,3.4,0.2c13.6,0,25.5-10.2,27.2-24.1l19.8-161.2C116.6,27,105.9,13.3,90.9,11.5z"/>
<path class="st7" d="M0.1,211.6l2.7-22c1.2,1.8,3.2,3.1,5.5,3.4l60.6,7.5c1.2,0.1,2.4,0.2,3.5,0.2c10.2,0,19.4-5.4,24.6-13.8
	l-2,16.4c-1.7,13.9-13.6,24.1-27.2,24.1c-1.1,0-2.2-0.1-3.4-0.2L6.6,220C2.5,219.5-0.4,215.8,0.1,211.6z"/>
<g>
	<circle class="st8" cx="464" cy="179.5" r="14.5"/>
	<circle class="st8" cx="47.2" cy="179.5" r="14.5"/>
</g>
</svg>
