<?xml version="1.0" encoding="utf-8"?>
<!-- Generator: Adobe Illustrator 23.0.2, SVG Export Plug-In . SVG Version: 6.00 Build 0)  -->
<svg version="1.1" id="Layer_1" xmlns="http://www.w3.org/2000/svg" xmlns:xlink="http://www.w3.org/1999/xlink" x="0px" y="0px"
	 viewBox="0 0 80.3 136.5" style="enable-background:new 0 0 80.3 136.5;" xml:space="preserve">
<style type="text/css">
	.st0{fill:#5A913D;}
</style>
<g>
	<g>
		<g>
			<g>
				<path class="st0" d="M75.2,26.2c-0.9,11.9-7.1,22.7-17.9,28.2c-5.4,2.8-11.4,3.9-16.9,6.4c-4.8,2.1-9.1,5-13.1,8.4
					C19.4,76.1,14,85.1,11,95.2c-3.6,12.2-4.5,25-10.1,36.6c-0.4,0.9,0.1,1.8,1.1,1.9c13.2,0.6,27.2,2.6,40.2-0.4
					C52.3,131,62,125.8,69,118.1c14.1-15.7,12.3-41.5,4.7-59.9c-0.6-1.5-3-0.8-2.4,0.7c7.4,18.1,9.5,43.5-5,58.5
					C49,135.4,24.6,132.2,2,131.2c0.4,0.6,0.7,1.3,1.1,1.9c5.4-11.2,6.6-23.6,9.9-35.6c3.5-12.7,10.8-23.6,21.9-30.8
					c9.8-6.3,22-7.1,30.9-15c7.4-6.5,11.2-15.8,11.9-25.4C77.8,24.6,75.3,24.6,75.2,26.2L75.2,26.2z"/>
			</g>
		</g>
		<g>
			<g>
				<path class="st0" d="M45.6,53.4c-12.4,0-23.5-8.6-26-21.1c-2.8-14.2,6.7-28,21.1-30.9l0,0C55.2-1.4,69.2,7.9,72,22
					c2.8,14.2-6.7,28-21.1,30.9C49.1,53.2,47.3,53.4,45.6,53.4z M41.3,4.4C28.5,7,20.1,19.2,22.5,31.8C25,44.3,37.5,52.5,50.3,50
					C63.1,47.4,71.5,35.2,69,22.6C66.6,10.1,54.1,1.9,41.3,4.4L41.3,4.4z"/>
			</g>
		</g>
		<path class="st0" d="M32,27c1.6,2.4,4.5,3.3,7.5,1.5c0.3-0.2,0.6-0.5,0.8-0.8c0.2-0.4,0.3-0.8,0-1.2c-0.2-0.4-0.6-0.4-1-0.4
			s-0.9,0.2-1.3,0.4c-1.8,0.7-3.1,0.3-4.2-1.2c-0.3-0.4-0.6-0.8-1-1.1c-0.3-0.3-0.7-0.4-1.1-0.2c-0.4,0.2-0.6,0.6-0.5,1.1
			C31.3,25.7,31.6,26.4,32,27z"/>
		<path class="st0" d="M51.4,32.2c1.3,1.8,2.9,2.5,5,2.2c0.8-0.1,1.5-0.4,2.2-0.7c0.4-0.2,0.6-0.4,0.9-0.7c0.5-0.7,0-1.5-0.9-1.6
			c-0.4,0-0.8,0.1-1.2,0.2c-1.7,0.4-3.2,0.1-4.4-1.4c-0.1-0.2-0.3-0.3-0.4-0.5c-0.3-0.3-0.7-0.4-1.1-0.2c-0.4,0.2-0.6,0.6-0.5,1.1
			C50.9,31.2,51.2,31.7,51.4,32.2z"/>
		<path class="st0" d="M45.3,43.4c0.3-0.2,0.7-0.5,0.9-0.9c0.2-0.3,0.3-0.6,0.1-0.9c-0.2-0.3-0.6-0.3-0.9-0.2
			c-0.2,0.1-0.5,0.2-0.7,0.3c-2.6,1.1-4.6,0.6-6.5-1.4l-0.1-0.1c-0.3-0.3-0.6-0.8-1.2-0.5c-0.5,0.3-0.4,0.9-0.2,1.3
			C37.8,43.6,41.4,45.8,45.3,43.4z"/>
		<g>
			<g>
				<path class="st0" d="M49.3,8.7c-0.5,0.6,0.2,0.2,0.5,0.1c0.4-0.1,0.6-0.4,1-0.2c0.6,0.2,0.9,1.1,1,1.7c0.1,0.8-0.2,1.3-0.8,1.8
					c-0.4,0.3-1.5,1-2,0.6c-1.4-0.9-2.6,1.3-1.3,2.2c1.9,1.2,4.8-0.3,5.9-1.9c1.2-1.9,0.6-5-1.3-6.3c-1.9-1.2-4.7-0.3-5.4,1.9
					c-0.3,1,0.1,2.2,1,2.8c1.1,0.7,2.2,0.1,3-0.8C52.1,9.2,50.3,7.4,49.3,8.7L49.3,8.7z"/>
			</g>
		</g>
	</g>
	<g>
		<g>
			<path class="st0" d="M3.7,132.6c26.4-10.5,36.7-38.9,55-58.3c1.1-1.2-0.7-2.9-1.8-1.8C39,91.5,28.7,120,3,130.2
				C1.5,130.8,2.2,133.2,3.7,132.6L3.7,132.6z"/>
		</g>
	</g>
</g>
</svg>
