<svg xmlns="http://www.w3.org/2000/svg" viewBox="0 0 266.24 222.74"><defs><style>.cls-1{fill:#7c5a4c;}.cls-2{fill:#9a7159;}.cls-3{fill:#c6c6c6;}.cls-4{fill:#d6d6d6;}.cls-5{fill:#fac751;}.cls-6{fill:#bfbfbf;}.cls-7{fill:none;stroke:#9a7159;stroke-miterlimit:10;}</style></defs><title>calendar-and-shovel</title><g id="calendar"><g id="shovel"><path class="cls-1" d="M181.07,179.82c-12.27,0-37.77,15-72.13,23.51-22.75,5.66-56.3,1.14-76.6,4.43C8.72,211.58,0,222.74,0,222.74H249.45S209.3,179.82,181.07,179.82Z"/><rect class="cls-2" x="220.55" y="6.04" width="7.66" height="151.15" transform="translate(35.03 -63.83) rotate(17.54)"/><ellipse class="cls-2" cx="247.67" cy="7.93" rx="5.62" ry="19.4" transform="translate(165.46 241.69) rotate(-72.46)"/><path class="cls-3" d="M231.7,163.19l-60.21-19s-4.71,36.57-3.06,44c1.75,8,16.68,17.64,16.68,17.64s17.41,1.3,23.29-4.09S231.7,163.19,231.7,163.19Z"/><path class="cls-4" d="M208.4,201.73c5.77-5.27,23.3-38.54,23.3-38.54l-30.1-9.52-16.49,52.15S202.52,207.12,208.4,201.73Z"/></g><g id="calendar-2" data-name="calendar"><rect class="cls-5" x="9.89" y="75.97" width="97.53" height="85.65"/><path class="cls-6" d="M25.45,66.33A9.64,9.64,0,0,0,15.81,76h1.91a7.73,7.73,0,1,1,7.73,7.72v1.92a9.64,9.64,0,1,0,0-19.28Z"/><path class="cls-6" d="M48.17,66.33A9.65,9.65,0,0,0,38.53,76h1.92a7.72,7.72,0,1,1,7.72,7.72v1.92a9.64,9.64,0,1,0,0-19.28Z"/><path class="cls-6" d="M70.89,66.33A9.64,9.64,0,0,0,61.26,76h1.91a7.73,7.73,0,1,1,7.72,7.72v1.92a9.64,9.64,0,1,0,0-19.28Z"/><path class="cls-6" d="M93.62,66.33A9.64,9.64,0,0,0,84,76h1.91a7.73,7.73,0,1,1,7.73,7.72v1.92a9.64,9.64,0,0,0,0-19.28Z"/><rect class="cls-7" x="24.43" y="99.21" width="11.41" height="11.41"/><rect class="cls-7" x="42.88" y="99.21" width="11.41" height="11.41"/><rect class="cls-7" x="61.32" y="99.21" width="11.41" height="11.41"/><rect class="cls-7" x="79.77" y="99.21" width="11.41" height="11.41"/><rect class="cls-7" x="61.32" y="117.51" width="11.41" height="11.41"/><rect class="cls-7" x="79.77" y="117.51" width="11.41" height="11.41"/><rect class="cls-7" x="42.88" y="117.51" width="11.41" height="11.41"/><rect class="cls-7" x="24.43" y="117.51" width="11.41" height="11.41"/><rect class="cls-7" x="61.32" y="135.8" width="11.41" height="11.41"/><rect class="cls-7" x="79.77" y="135.8" width="11.41" height="11.41"/><rect class="cls-7" x="42.88" y="135.8" width="11.41" height="11.41"/><rect class="cls-7" x="24.43" y="135.8" width="11.41" height="11.41"/><path d="M80.79,103.32a44.09,44.09,0,0,0,3.41,6.4c.62,1,2.3,1.48,3.14.41,3-3.86,6.1-7.82,10.65-9.93,2.33-1.09.3-4.54-2-3.46-4.85,2.26-8.23,6.43-11.46,10.56l3.14.41a44.67,44.67,0,0,1-3.4-6.41c-1-2.36-4.47-.32-3.46,2Z"/></g></g></svg>