<svg xmlns="http://www.w3.org/2000/svg" viewBox="0 0 122.07 117.07"><defs><style>.cls-1{fill:#e4b13b;}.cls-2{fill:#fac240;}.cls-3{fill:#d13333;}</style></defs><title>gift</title><g id="Layer_2" data-name="Layer 2"><rect class="cls-1" x="7.22" y="34.05" width="107.63" height="83.02" rx="2.83"/><rect class="cls-2" y="14.68" width="122.07" height="32.98" rx="2.83"/><rect class="cls-3" x="50.21" y="14.68" width="20.18" height="102.38"/><circle class="cls-3" cx="60.3" cy="17.76" r="7.75"/><path class="cls-3" d="M73.55.5c-9.4,2.71-14.65,7.1-14.65,11s6.56,3.18,14.65,3.18S88.19,11.53,88.19,7.6,81-1.66,73.55.5Zm-.49,13c-5.19,0-9.4.47-9.4-2S67,6.08,73.06,4.34c4.8-1.39,9.39,2,9.39,4.56s-4.21,4.56-9.39,4.56Z"/><path class="cls-3" d="M32.4,7.6c0,3.93,6.56,7.11,14.65,7.11s14.64.74,14.64-3.18S56.44,3.21,47.05.5C39.57-1.66,32.4,3.68,32.4,7.6Zm5.75,1.3c0-2.52,4.59-5.95,9.39-4.56,6,1.74,9.39,4.56,9.39,7.08s-4.2,2-9.39,2S38.15,11.42,38.15,8.9Z"/></g></svg>