<?xml version="1.0" encoding="utf-8"?>
<!-- Generator: Adobe Illustrator 16.0.0, SVG Export Plug-In . SVG Version: 6.00 Build 0)  -->
<!DOCTYPE svg PUBLIC "-//W3C//DTD SVG 1.1//EN" "http://www.w3.org/Graphics/SVG/1.1/DTD/svg11.dtd">
<svg version="1.1" id="Layer_1" xmlns="http://www.w3.org/2000/svg" xmlns:xlink="http://www.w3.org/1999/xlink" x="0px" y="0px"
	 width="130px" height="130px" viewBox="0 0 130 130" enable-background="new 0 0 130 130" xml:space="preserve">
<g>
	<g id="Base_icon_copy_11_7_">
		<path fill="#3B82B9" d="M125.8,1H4.2C2.433,1,1,2.433,1,4.2v121.6c0,1.768,1.433,3.2,3.2,3.2h121.6c1.768,0,3.2-1.433,3.2-3.2V4.2
			C129,2.433,127.567,1,125.8,1z"/>
	</g>
	<g id="Instagram_icon">
		<path fill="#FFFFFF" d="M88.368,35.471H43.245c-4.29,0-7.803,3.5-7.803,7.78v45.143c0,4.278,3.513,7.777,7.803,7.777h45.123
			c4.292,0,7.8-3.499,7.8-7.777V43.251C96.168,38.971,92.66,35.471,88.368,35.471z M78.827,44.997c0-1.264,1.035-2.301,2.306-2.301
			h5.51c1.266,0,2.305,1.037,2.305,2.301v5.502c0,1.266-1.039,2.299-2.305,2.299h-5.51c-1.271,0-2.306-1.033-2.306-2.299V44.997z
			 M65.806,52.814c7.185,0,13.01,5.816,13.01,12.993c0,7.176-5.825,12.991-13.01,12.991c-7.186,0-13.011-5.815-13.011-12.991
			C52.795,58.63,58.62,52.814,65.806,52.814z M90.428,87.971c0,1.327-1.083,2.406-2.413,2.406H43.663
			c-1.328,0-2.413-1.079-2.413-2.406V61.463h6.257c-0.327,1.39-0.52,2.832-0.52,4.32c0,10.392,8.436,18.814,18.841,18.814
			c10.406,0,18.84-8.423,18.84-18.814c0-1.492-0.211-2.929-0.54-4.32h6.3V87.971z"/>
	</g>
</g>
</svg>
