<svg id="Layer_1" data-name="Layer 1" xmlns="http://www.w3.org/2000/svg" viewBox="0 0 60.73 60.7"><defs><style>.cls-1{fill:#fff;}</style></defs><title>instagram-logo-transparent</title><g id="Instagram_icon" data-name="Instagram icon"><path class="cls-1" d="M52.93,0H7.8A7.81,7.81,0,0,0,0,7.78V52.92A7.81,7.81,0,0,0,7.8,60.7H52.93a7.81,7.81,0,0,0,7.8-7.78V7.78A7.81,7.81,0,0,0,52.93,0ZM43.39,9.53a2.3,2.3,0,0,1,2.3-2.3H51.2a2.31,2.31,0,0,1,2.31,2.3V15a2.32,2.32,0,0,1-2.31,2.3H45.69a2.31,2.31,0,0,1-2.3-2.3Zm-13,7.81a13,13,0,1,1-13,13A13,13,0,0,1,30.36,17.34ZM55,52.5a2.42,2.42,0,0,1-2.42,2.41H8.22A2.41,2.41,0,0,1,5.81,52.5V26h6.26A18.75,18.75,0,0,0,30.39,49.13,18.68,18.68,0,0,0,48.69,26H55Z"/></g></svg>