<svg xmlns="http://www.w3.org/2000/svg" viewBox="0 0 186.17 136.35"><defs><style>.cls-1{fill:#e2e2e2;}.cls-2{fill:#ddd;}.cls-3{fill:#b0d9cf;}.cls-4{fill:#9cd0c3;}.cls-5{fill:#d26132;}.cls-6{fill:#fff;}</style></defs><title>location</title><g id="location"><polygon class="cls-1" points="33.95 47.67 0 115.72 69.83 136.35 74.32 58.97 33.95 47.67"/><polygon class="cls-2" points="74.32 58.97 69.83 136.35 127.97 116.7 103.79 46.82 74.32 58.97"/><polygon class="cls-1" points="132.69 54.37 103.79 46.82 127.97 116.7 186.17 131.77 132.69 54.37"/><polygon class="cls-3" points="70.59 123.14 16.02 106.6 37.16 54.32 74 64.36 70.59 123.14"/><polygon class="cls-4" points="123.94 105.03 70.59 123.14 74 64.36 105.6 52.05 123.94 105.03"/><polygon class="cls-3" points="167.52 117.19 123.94 105.03 105.6 52.05 130.1 57.92 167.52 117.19"/><path class="cls-5" d="M114.21,28c0,15.45-28,55.7-28,55.7s-28-40.25-28-55.7a28,28,0,0,1,56,0Z"/><circle class="cls-6" cx="86.23" cy="27.17" r="14.67"/></g></svg>