<svg xmlns="http://www.w3.org/2000/svg" viewBox="0 0 80.28 136.49"><defs><style>.cls-1{fill:#fff;}.cls-2{fill:none;stroke:#fff;stroke-miterlimit:10;stroke-width:3px;}</style></defs><title>Artboard 1</title><g id="Layer_1" data-name="Layer 1"><path class="cls-1" d="M75.19,26.24c-.92,11.9-7.1,22.69-17.89,28.23-5.38,2.76-11.41,3.92-16.91,6.39a52.6,52.6,0,0,0-13.07,8.39A54.64,54.64,0,0,0,11,95.15C7.4,107.3,6.57,120.17,1,131.71a1.26,1.26,0,0,0,1.08,1.88c13.2.6,27.2,2.61,40.22-.36,10.1-2.31,19.82-7.47,26.79-15.22C83.2,102.3,81.33,76.55,73.74,58.08c-.6-1.47-3-.83-2.41.66,7.42,18.08,9.45,43.51-5,58.53-17.27,18-41.68,14.85-64.29,13.82L3.14,133C8.58,121.72,9.7,109.33,13,97.42,16.5,84.75,23.77,73.79,34.94,66.64c9.77-6.26,22-7.13,30.85-15C73.17,45.17,77,35.91,77.69,26.24c.12-1.6-2.38-1.59-2.5,0Z"/><ellipse class="cls-2" cx="45.76" cy="27.21" rx="25.24" ry="24.65" transform="translate(-4.4 9.37) rotate(-11.16)"/><path class="cls-1" d="M32,27c1.56,2.42,4.51,3.28,7.46,1.46a2.22,2.22,0,0,0,.79-.82,1.13,1.13,0,0,0,0-1.19,1,1,0,0,0-1-.4,3.65,3.65,0,0,0-1.26.36,3.21,3.21,0,0,1-4.22-1.17,10.34,10.34,0,0,0-1-1.13.86.86,0,0,0-1.09-.2,1,1,0,0,0-.52,1A4.61,4.61,0,0,0,32,27Z"/><path class="cls-1" d="M51.4,32.15a4.91,4.91,0,0,0,5,2.24,8.27,8.27,0,0,0,2.17-.67A2,2,0,0,0,59.4,33a1,1,0,0,0-.86-1.56,5.2,5.2,0,0,0-1.24.22,4,4,0,0,1-4.41-1.35,5.11,5.11,0,0,0-.45-.48.89.89,0,0,0-1.09-.24,1,1,0,0,0-.52,1.05A4.3,4.3,0,0,0,51.4,32.15Z"/><path class="cls-1" d="M45.29,43.36a2.66,2.66,0,0,0,.91-.87.8.8,0,0,0,.06-.91c-.22-.31-.56-.27-.88-.18a5.4,5.4,0,0,0-.67.25,5.16,5.16,0,0,1-6.49-1.44,1.71,1.71,0,0,1-.11-.14c-.32-.33-.64-.77-1.16-.47s-.38.88-.19,1.35A5.66,5.66,0,0,0,45.29,43.36Z"/><path class="cls-1" d="M49.28,8.66c-.51.61.24.2.5.11s.59-.4,1-.23.88,1.09,1,1.66A1.69,1.69,0,0,1,51,12c-.41.31-1.49,1-2,.64-1.36-.87-2.62,1.3-1.26,2.16,1.86,1.18,4.78-.27,5.9-1.95a4.87,4.87,0,0,0-1.29-6.29A3.67,3.67,0,0,0,47,8.42a2.43,2.43,0,0,0,1,2.77,2.28,2.28,0,0,0,3-.76c1-1.22-.73-3-1.77-1.77Z"/><path class="cls-1" d="M3.69,132.64c26.36-10.53,36.66-38.9,55-58.31,1.11-1.16-.66-2.94-1.77-1.76C39,91.53,28.74,120,3,130.23c-1.47.59-.83,3,.67,2.41Z"/></g></svg>