<svg id="Layer_1" data-name="Layer 1" xmlns="http://www.w3.org/2000/svg" viewBox="0 0 80.28 136.49"><defs><style>.cls-1{fill:#fff;}</style></defs><title>Artboard 1</title><path class="cls-1" d="M75.19,26.24c-.92,11.9-7.1,22.69-17.89,28.23-5.38,2.76-11.41,3.92-16.91,6.39a52.42,52.42,0,0,0-13.07,8.39A54.61,54.61,0,0,0,11,95.15c-3.6,12.15-4.43,25-10,36.56a1.26,1.26,0,0,0,.48,1.72,1.25,1.25,0,0,0,.6.16c13.2.6,27.2,2.61,40.22-.36,10.1-2.31,19.82-7.47,26.79-15.22C83.2,102.3,81.33,76.55,73.74,58.08c-.6-1.47-3-.83-2.41.66,7.42,18.08,9.45,43.51-5,58.53-17.27,18-41.68,14.85-64.29,13.82L3.14,133C8.58,121.72,9.7,109.33,13,97.42c3.5-12.67,10.77-23.63,21.94-30.78,9.77-6.26,22-7.13,30.85-15,7.38-6.47,11.21-15.73,11.9-25.4C77.81,24.64,75.31,24.65,75.19,26.24Z"/><path class="cls-1" d="M45.53,53.38a26.33,26.33,0,0,1-26-21,25.65,25.65,0,0,1,4.11-19.67A26.9,26.9,0,0,1,40.7,1.55h0C55.16-1.3,69.21,7.89,72,22A25.68,25.68,0,0,1,67.88,41.7,27.24,27.24,0,0,1,45.53,53.38ZM41.28,4.5a23.89,23.89,0,0,0-15.17,9.91A22.72,22.72,0,0,0,22.47,31.8C24.94,44.33,37.4,52.46,50.24,49.92A23.9,23.9,0,0,0,65.41,40a22.74,22.74,0,0,0,3.64-17.4C66.58,10.09,54.13,2,41.28,4.5Z"/><path class="cls-1" d="M32,27c1.56,2.42,4.51,3.28,7.46,1.46a2.22,2.22,0,0,0,.79-.82,1.11,1.11,0,0,0,0-1.19,1,1,0,0,0-1-.4,3.45,3.45,0,0,0-1.26.36,3.21,3.21,0,0,1-4.22-1.17,10.77,10.77,0,0,0-1-1.13.86.86,0,0,0-1.09-.2,1,1,0,0,0-.52,1A4.56,4.56,0,0,0,32,27Z"/><path class="cls-1" d="M51.4,32.15a4.91,4.91,0,0,0,5,2.24,8.27,8.27,0,0,0,2.17-.67A2,2,0,0,0,59.4,33a1,1,0,0,0-.27-1.39,1,1,0,0,0-.59-.17,5.2,5.2,0,0,0-1.24.22,4,4,0,0,1-4.41-1.35,5.11,5.11,0,0,0-.45-.48.88.88,0,0,0-1.09-.24,1,1,0,0,0-.52,1.05A4.33,4.33,0,0,0,51.4,32.15Z"/><path class="cls-1" d="M45.29,43.36a2.61,2.61,0,0,0,.91-.87.8.8,0,0,0,.06-.91c-.22-.31-.56-.27-.88-.18a5.4,5.4,0,0,0-.67.25,5.16,5.16,0,0,1-6.49-1.44.76.76,0,0,1-.11-.14c-.32-.33-.64-.77-1.16-.47s-.38.88-.19,1.35a5.67,5.67,0,0,0,7.4,3A5.94,5.94,0,0,0,45.29,43.36Z"/><path class="cls-1" d="M49.28,8.66c-.51.61.24.2.5.11s.59-.4,1-.23a2.82,2.82,0,0,1,1,1.66A1.69,1.69,0,0,1,51,12c-.41.31-1.49,1-2,.64-1.36-.87-2.62,1.3-1.26,2.16,1.86,1.18,4.78-.27,5.9-2a4.87,4.87,0,0,0-1.29-6.29,3.66,3.66,0,0,0-5,1.23,3.07,3.07,0,0,0-.31.63,2.43,2.43,0,0,0,1,2.77,2.27,2.27,0,0,0,3-.76c1-1.22-.73-3-1.77-1.77Z"/><path class="cls-1" d="M3.69,132.64c26.36-10.53,36.66-38.9,55-58.31,1.11-1.16-.66-2.94-1.77-1.76C39,91.53,28.74,120,3,130.23c-1.47.59-.83,3,.67,2.41Z"/></svg>