<?xml version="1.0" encoding="utf-8"?>
<!-- Generator: Adobe Illustrator 23.0.2, SVG Export Plug-In . SVG Version: 6.00 Build 0)  -->
<svg version="1.1" xmlns="http://www.w3.org/2000/svg" xmlns:xlink="http://www.w3.org/1999/xlink" x="0px" y="0px"
	 viewBox="0 0 382.8 140.6" style="enable-background:new 0 0 382.8 140.6;" xml:space="preserve">
<style type="text/css">
	.st0{fill:#FFFFFF;}
	.st1{fill:none;}
	.st2{enable-background:new    ;}
</style>
<g id="Layer_2">
</g>
<g id="Layer_1">
	<g>
		<g>
			<g>
				<g>
					<g>
						<path class="st0" d="M75.2,26.2c-0.9,11.9-7.1,22.7-17.9,28.2c-5.4,2.8-11.4,3.9-16.9,6.4c-4.8,2.1-9.1,5-13.1,8.4
							C19.4,76.1,14,85.1,11,95.2c-3.6,12.2-4.5,25-10.1,36.6c-0.4,0.9,0.1,1.8,1.1,1.9c13.2,0.6,27.2,2.6,40.2-0.4
							C52.3,131,62,125.8,69,118.1c14.1-15.7,12.3-41.5,4.7-59.9c-0.6-1.5-3-0.8-2.4,0.7c7.4,18.1,9.5,43.5-5,58.5
							C49,135.4,24.6,132.2,2,131.2c0.4,0.6,0.7,1.3,1.1,1.9c5.4-11.2,6.6-23.6,9.9-35.6c3.5-12.7,10.8-23.6,21.9-30.8
							c9.8-6.3,22-7.1,30.9-15c7.4-6.5,11.2-15.8,11.9-25.4C77.8,24.6,75.3,24.6,75.2,26.2L75.2,26.2z"/>
					</g>
				</g>
				<g>
					<g>
						<path class="st0" d="M45.6,53.4c-12.4,0-23.5-8.6-26-21.1c-2.8-14.2,6.7-28,21.1-30.9l0,0C55.2-1.4,69.2,7.9,72,22
							c2.8,14.2-6.7,28-21.1,30.9C49.1,53.2,47.3,53.4,45.6,53.4z M41.3,4.4C28.5,7,20.1,19.2,22.5,31.8C25,44.3,37.5,52.5,50.3,50
							C63.1,47.4,71.5,35.2,69,22.6C66.6,10.1,54.1,1.9,41.3,4.4L41.3,4.4z"/>
					</g>
				</g>
				<path class="st0" d="M32,27c1.6,2.4,4.5,3.3,7.5,1.5c0.3-0.2,0.6-0.5,0.8-0.8c0.2-0.4,0.3-0.8,0-1.2c-0.2-0.4-0.6-0.4-1-0.4
					s-0.9,0.2-1.3,0.4c-1.8,0.7-3.1,0.3-4.2-1.2c-0.3-0.4-0.6-0.8-1-1.1c-0.3-0.3-0.7-0.4-1.1-0.2c-0.4,0.2-0.6,0.6-0.5,1.1
					C31.3,25.7,31.6,26.4,32,27z"/>
				<path class="st0" d="M51.4,32.2c1.3,1.8,2.9,2.5,5,2.2c0.8-0.1,1.5-0.4,2.2-0.7c0.4-0.2,0.6-0.4,0.9-0.7c0.5-0.7,0-1.5-0.9-1.6
					c-0.4,0-0.8,0.1-1.2,0.2c-1.7,0.4-3.2,0.1-4.4-1.4c-0.1-0.2-0.3-0.3-0.4-0.5c-0.3-0.3-0.7-0.4-1.1-0.2c-0.4,0.2-0.6,0.6-0.5,1.1
					C50.9,31.2,51.2,31.7,51.4,32.2z"/>
				<path class="st0" d="M45.3,43.4c0.3-0.2,0.7-0.5,0.9-0.9c0.2-0.3,0.3-0.6,0.1-0.9c-0.2-0.3-0.6-0.3-0.9-0.2
					c-0.2,0.1-0.5,0.2-0.7,0.3c-2.6,1.1-4.6,0.6-6.5-1.4l-0.1-0.1c-0.3-0.3-0.6-0.8-1.2-0.5c-0.5,0.3-0.4,0.9-0.2,1.3
					C37.8,43.6,41.4,45.8,45.3,43.4z"/>
				<g>
					<g>
						<path class="st0" d="M49.3,8.7c-0.5,0.6,0.2,0.2,0.5,0.1c0.4-0.1,0.6-0.4,1-0.2c0.6,0.2,0.9,1.1,1,1.7
							c0.1,0.8-0.2,1.3-0.8,1.8c-0.4,0.3-1.5,1-2,0.6c-1.4-0.9-2.6,1.3-1.3,2.2c1.9,1.2,4.8-0.3,5.9-1.9c1.2-1.9,0.6-5-1.3-6.3
							c-1.9-1.2-4.7-0.3-5.4,1.9c-0.3,1,0.1,2.2,1,2.8c1.1,0.7,2.2,0.1,3-0.8C52.1,9.2,50.3,7.4,49.3,8.7L49.3,8.7z"/>
					</g>
				</g>
			</g>
			<g>
				<g>
					<path class="st0" d="M3.7,132.6c26.4-10.5,36.7-38.9,55-58.3c1.1-1.2-0.7-2.9-1.8-1.8C39,91.5,28.7,120,3,130.2
						C1.5,130.8,2.2,133.2,3.7,132.6L3.7,132.6z"/>
				</g>
			</g>
		</g>
	</g>
	<g id="Layer_3">
		<rect x="83.2" y="73.6" class="st1" width="290.4" height="62.6"/>
		<g class="st2">
			<path class="st0" d="M90.8,135c-0.4-0.4-0.6-0.9-0.6-1.5l-0.1-3.2c0-2.4,0.2-6.1,0.6-10.8c0.3-5.3,0.5-8.9,0.5-10.7l-0.1-4.6
				c-0.1-1.4-0.1-2.9-0.1-4.5c0-2.7,0.1-6.8,0.3-12.1c0.2-5.5,0.3-9.6,0.3-12.2l-0.1-5.9l-0.4-0.5v-0.6c0-1.8,0.7-2.7,2.1-2.7
				c1.1,0,2.9,0.4,5.4,1.3c2.5,0.9,3.7,1.5,3.7,2.1v0.3c1.2,2,2.1,3.9,2.5,5.9c0.4,2,0.7,4.5,0.7,7.5c0,5-0.5,9-1.6,12.1h0.1
				c-0.3,0.5-0.8,1.4-1.6,2.7l-1.4,2.1c1.2,1,2.3,2.3,3.1,4.2c0.8,1.8,1.4,3.6,1.6,5.3c0.1,0.6,0.1,1.4,0.2,2.2
				c0.1,0.9,0.1,1.9,0.2,3.2l0.1,2.7v1.4c0,6.5-2,11.4-6.1,14.5c-2.1,1.6-4.7,2.4-7.9,2.4C91.6,135.7,91.1,135.4,90.8,135z
				 M98.3,130c1.4-1.1,2.5-2.5,3.3-4.2c0.8-1.7,1.2-3.5,1.2-5.2l0.1-0.4v-0.8v-1.1c0-2.9-0.2-5.6-0.7-8.2c-0.7-3.5-2.1-6-4-7.5
				c-1.1-0.9-2.4-1.3-3.9-1.3c-0.3,5.6-0.5,10.3-0.5,13.9v2.3c0,2,0.1,3.5,0.3,4.7c-0.3,0.6-0.5,2.2-0.5,4.9v2.7l0.1,1.9
				C95.4,131.7,96.9,131.1,98.3,130z M95.3,97.7c4.5,0,6.7-4.5,6.7-13.6c0-0.7-0.1-2.2-0.2-4.4l-0.1-1.9l-0.2-0.2
				c-0.3-2.2-0.6-4-1.1-5.3c-0.3-1-0.9-1.7-1.6-2.3c-0.7-0.6-1.6-0.9-2.4-0.9c-1.5,0-2.2,4.5-2.2,13.4c0,1.7,0,2.9,0.1,3.5v2v3.5
				c-0.1,1.1-0.1,2.3-0.1,3.7v1.2l0.2,0.6l0.2,0.7H95.3z"/>
			<path class="st0" d="M118,98.9v-3.6c0-19,2.4-28.5,7.3-28.5c0.3,0,0.8,0.1,1.4,0.3c2.2,0.7,4.3,1.2,6.4,1.4
				c1.3,0.3,2.6,1.6,3.9,4c1.4,2.4,2.5,5.7,3.2,9.7s1.1,8.1,1.1,12.3l-0.2,0.5c0,2.2,0,4.2,0.1,6l0.1,6.1c0,3.5-0.1,6.6-0.4,9.4
				c-0.4,4.2-1.1,7.9-2,10.9c-0.6,1.8-1.3,3.4-2.1,4.6c-0.8,1.2-1.8,2.2-2.9,3.1c-1.1,0.8-2.4,1.2-4,1.2C122,136.5,118,124,118,98.9
				z M135.5,127.9c1.3-3.8,2.1-7.7,2.3-11.6c0.3-4.1,0.4-7.3,0.4-9.8c0-2.7-0.2-6.7-0.6-12c-0.3-5.9-0.5-9.9-0.5-12l-0.4-0.8
				l0.2-0.5c0-3-0.8-5.6-2.5-7.8c-1.7-2.2-3.7-3.3-6.1-3.3c-3.1,0-5,1.5-5.6,4.5c-0.1,1-0.3,2.5-0.4,4.4c0,5-0.2,8.5-0.6,10.3
				c0,1-0.1,2.6-0.3,4.8l-0.2,4.8c0,1.5,0,2.8,0.1,4l0.1,4.1c0,3.2,0.3,6.9,0.8,11c0.4,3.1,0.9,5.6,1.4,7.8c0.5,2.1,1.3,3.9,2.3,5.4
				c1,1.6,2.2,2.4,3.6,2.4C132.2,133.5,134.2,131.6,135.5,127.9z"/>
			<path class="st0" d="M170.3,135.8c-0.8-0.9-1.7-3.2-2.7-7c-1-3.8-1.8-8.1-2.7-12.9c-0.5-3.9-1.3-7.7-2.3-11.5
				c-0.8-3.4-1.6-5.1-2.3-5.1H160c-1.5,0-2.2,0.5-2.2,1.4c0,4.9,0.3,12.3,0.8,22.3c0.3,6.1,0.6,9.7,0.9,10.7l-0.8,1.7h-1.4l-0.8-0.8
				c-1.1-31.4-1.6-52.8-1.6-64.3c0-0.7,0.1-1.4,0.2-1.8c0.1-0.5,0.3-0.9,0.7-1.3c0.3-0.5,0.7-0.7,1.4-0.7c3.5,0,6.3,0.9,8.4,2.5
				c2.1,1.7,3.2,4.1,3.2,7.3v7.4c0,1.3-0.4,3-1.3,5.2c-0.9,2.2-1.8,4.2-2.8,6l-1.3,2.5c0.7,3.5,2.2,9.7,4.4,18.7
				c2.2,9,3.4,13.8,3.6,14.3c0.1,0.1,0.2,0.2,0.3,0.5c0.1,0.3,0.3,0.7,0.7,1.2c0.5,1,0.7,1.8,0.7,2.4c0,1-0.4,1.4-1.1,1.4
				L170.3,135.8z M161.7,94.8c1-1.3,1.8-3,2.4-5c1.1-4.1,1.6-7.4,1.6-9.9c0-1.6-0.1-2.9-0.3-3.9c-0.2-1-0.5-2.1-0.9-3.3
				c-0.8-2.4-2.8-3.6-5.8-3.6c-0.3,0-0.6,0.3-0.8,0.9c-0.2,0.6-0.3,1.2-0.3,1.8c0,4.6,0.1,8.7,0.2,12.3c0.1,3.7,0.1,7.8,0.1,12.3
				l0.2,0.2C159.5,96.7,160.7,96,161.7,94.8z"/>
			<path class="st0" d="M209.4,134.9c0,0-0.1-0.2-0.4-0.6c-0.2-0.4-0.5-1-0.7-1.8c-0.1-0.5-0.2-1-0.4-1.4l0.1-0.3
				c-0.5-3.2-1.7-7.1-3.5-11.7l-1.8-5.3c-0.1-0.1-0.8-1.9-1.9-5.2l-0.8-2.4c-6.1-18.9-10-29.1-11.5-30.7c-0.5,1.8-0.8,4.2-0.8,7.1
				c0,1.6,0,2.9,0.1,4.1l0.1,4l-0.1,2.4c-0.1,0.8-0.1,1.6-0.1,2.4c0,1.5,0.1,2.8,0.2,3.9l0.2,3.3h-0.3c0,11.4,0.2,17.6,0.7,18.8v9.2
				c0.3,0.5,0.4,1.3,0.4,2.1c0,0.5-0.2,1-0.6,1.4c-0.4,0.4-0.8,0.6-1.4,0.6c-1.4,0-2.1-1.8-2.1-5.5l0.2-3.3c0.1-1,0.2-2.1,0.2-3.4
				c0-3.3-0.1-8.2-0.3-14.7c-0.2-6.5-0.3-11.4-0.3-14.7c0-2,0.1-5,0.3-9.1c0.2-4,0.3-7,0.3-9v-1.3c0-3.3,0.6-5.5,1.8-6.5l0.3,0.3
				l1-0.2c0.3,0.1,0.6,0.3,0.9,0.6c0.3,0.3,0.4,0.6,0.4,0.9l0.2,0.6c0,0.1,0,0.3,0.1,0.5c1.1,4.8,3.5,11.6,7.3,20.3
				c3.9,9.2,6.3,15.3,7.2,18.3c0.7,2.4,1.2,4.5,1.6,6.3c1.3,5.8,2.8,10.2,4.6,13.4l0.2-0.3c1.6-15.1,2.3-33.6,2.3-55.6l-0.1-1.2
				c-0.1-0.3-0.1-0.8-0.1-1.3c0-1.4,0.5-2.1,1.4-2.1c0.6,0,1.1,0.3,1.6,0.9c0.4,0.6,0.7,1.3,0.7,2v6.8l-0.5,0.8
				c0,6.5-0.4,17.1-1.1,31.8c-0.7,14.8-1.5,22.8-2.1,24.1l-1.7,0.4v0.1l-0.1-0.1l-1,0.3C209.7,134.9,209.4,134.9,209.4,134.9z"/>
			<path class="st0" d="M236.3,134.1c-1.5-0.7-2.6-2.2-3.3-4.3s-1.3-5.6-1.9-10.3c-0.8-6.9-1.2-12.2-1.2-16c0-2.3,0.1-5,0.4-8
				l0.6-6.4c0.3-5.1,0.7-9,1.2-11.6c0.4-2.6,1.4-4.9,3-6.9c1.5-2,3.9-3.2,7.1-3.5c0.3-0.1,0.9-0.1,1.6-0.1c2.1,0,3.2,0.5,3.2,1.4
				c0,0.4-0.2,0.8-0.7,1.1c-0.4,0.3-0.9,0.5-1.4,0.5l-1-0.1l-0.9-0.1c-1.2,0-2.2,0.4-3.1,1.1c-0.9,0.7-1.7,1.8-2.3,3.3
				c-1.4,3.4-2.3,6.7-2.8,10c-0.5,4.3-0.9,8-1,11.2l-0.1,7.9c0,3.3,0.1,5.8,0.3,7.4c0.5,0.7,0.8,1.9,1,3.4c0.2,1.5,0.3,3.6,0.5,6.3
				c0.1,2.4,0.4,4.4,0.9,6.1c0.5,1.7,1.3,3,2.6,4.1c1.4,1.2,3.2,1.7,5.6,1.7c2,0,3.4-1.1,4.2-3.3c1-2.3,1.5-4.7,1.6-7.1
				c0.2-3.1,0.3-5.6,0.3-7.8v-5.6c-0.7-0.7-1.9-1-3.6-1h-0.8c-0.3,0.1-0.7,0.1-1.1,0.1c-1.6,0-2.4-0.4-2.4-1.2
				c0-1.2,0.8-1.7,2.4-1.7c1.2,0,2.1,0,2.9,0.1l2.2,0.1c1.3,0.2,2.3,0.4,3.1,0.7c0.8,0.3,1.2,0.6,1.2,1.1c0,0.9-0.2,2.1-0.6,3.8
				c-0.3,1.9-0.5,3.2-0.5,3.9c0,2.9,0.1,5.4,0.2,7.8c0.1,2.4,0.1,5,0.1,7.9c-3.5,3.5-6.9,5.3-10.4,5.3
				C240.1,135.2,237.8,134.9,236.3,134.1z"/>
			<path class="st0" d="M281.3,135.8c-0.8-0.9-1.7-3.2-2.7-7c-1-3.8-1.8-8.1-2.7-12.9c-0.5-3.9-1.3-7.7-2.3-11.5
				c-0.8-3.4-1.6-5.1-2.3-5.1H271c-1.5,0-2.2,0.5-2.2,1.4c0,4.9,0.3,12.3,0.8,22.3c0.3,6.1,0.6,9.7,0.9,10.7l-0.8,1.7h-1.4l-0.8-0.8
				c-1.1-31.4-1.6-52.8-1.6-64.3c0-0.7,0.1-1.4,0.2-1.8c0.1-0.5,0.3-0.9,0.7-1.3c0.3-0.5,0.7-0.7,1.4-0.7c3.5,0,6.3,0.9,8.4,2.5
				c2.1,1.7,3.2,4.1,3.2,7.3v7.4c0,1.3-0.4,3-1.3,5.2c-0.9,2.2-1.8,4.2-2.8,6l-1.3,2.5c0.7,3.5,2.2,9.7,4.4,18.7
				c2.2,9,3.4,13.8,3.6,14.3c0.1,0.1,0.2,0.2,0.3,0.5c0.1,0.3,0.3,0.7,0.7,1.2c0.5,1,0.7,1.8,0.7,2.4c0,1-0.4,1.4-1.1,1.4
				L281.3,135.8z M272.8,94.8c1-1.3,1.8-3,2.4-5c1.1-4.1,1.6-7.4,1.6-9.9c0-1.6-0.1-2.9-0.3-3.9c-0.2-1-0.5-2.1-0.9-3.3
				c-0.8-2.4-2.8-3.6-5.8-3.6c-0.3,0-0.6,0.3-0.8,0.9c-0.2,0.6-0.3,1.2-0.3,1.8c0,4.6,0.1,8.7,0.2,12.3c0.1,3.7,0.1,7.8,0.1,12.3
				l0.2,0.2C270.6,96.7,271.8,96,272.8,94.8z"/>
			<path class="st0" d="M295.2,133.7v-1.3c0.1-0.3,0.1-0.7,0.1-1.2l-0.4-0.4c0.5-1.4,0.8-2.8,0.8-4.2c0-1.6-0.1-3.8-0.3-6.7
				l-0.2-6.7c0-3.4,0.1-8.5,0.3-15.3c0.3-6.1,0.4-11.2,0.4-15.4l-0.2-6.1c-0.1-1.8-0.2-3.9-0.2-6.1c0-1,0.2-1.8,0.7-2.2
				c0.5-0.4,1.2-0.7,2.2-0.7c0.7,0,1.2,0.2,1.6,0.6c0.1,0.1,1.1,0.2,3,0.4c1.7,0.2,3.2,0.5,4.4,0.9c1.3,0.4,1.9,0.9,1.9,1.5
				c0,0.7-0.6,1.4-1.9,2c-3.9-1.3-6.6-1.9-8.3-1.9l-0.5,0.6c0.1,0.6,0.1,2.1,0.1,4.4c0,2.9-0.1,5.5-0.2,7.9c-0.1,2.4-0.1,5-0.1,8
				c0,1.9,0.5,2.9,1.4,2.9l1.6-0.1c0.5-0.1,1.1-0.1,1.7-0.1c2.7,0,4,0.6,4,1.8c0,0.8-0.2,1.4-0.5,1.9c-0.3,0.5-0.9,0.8-1.5,0.8
				c-1,0-1.8-0.3-2.3-0.8l-3.3-0.5h-0.5l-0.5,0.5v0.3c0.1,1.2,0.2,3.8,0.2,8.1c0,2.7,0,5.1-0.1,7.2l-0.1,7.2c0,2.7,0.1,5.4,0.3,8.2
				c0.1,1.6,0.4,2.6,1,3.1s1.7,0.8,3.4,0.8l1.8-0.1c0.6-0.1,1.3-0.1,2-0.1c2,0,3,0.4,3,1.3c0,1.2-1.5,1.8-4.5,1.8h-8.4
				C296,135.9,295.3,135.1,295.2,133.7z"/>
			<path class="st0" d="M321.3,133.7v-1.3c0.1-0.3,0.1-0.7,0.1-1.2l-0.4-0.4c0.5-1.4,0.8-2.8,0.8-4.2c0-1.6-0.1-3.8-0.3-6.7
				l-0.2-6.7c0-3.4,0.1-8.5,0.3-15.3c0.3-6.1,0.4-11.2,0.4-15.4l-0.2-6.1c-0.1-1.8-0.2-3.9-0.2-6.1c0-1,0.2-1.8,0.7-2.2
				c0.5-0.4,1.2-0.7,2.2-0.7c0.7,0,1.2,0.2,1.6,0.6c0.1,0.1,1.1,0.2,3,0.4c1.7,0.2,3.2,0.5,4.4,0.9c1.3,0.4,1.9,0.9,1.9,1.5
				c0,0.7-0.6,1.4-1.9,2c-3.9-1.3-6.6-1.9-8.3-1.9l-0.5,0.6c0.1,0.6,0.1,2.1,0.1,4.4c0,2.9-0.1,5.5-0.2,7.9c-0.1,2.4-0.1,5-0.1,8
				c0,1.9,0.5,2.9,1.4,2.9l1.6-0.1c0.5-0.1,1.1-0.1,1.7-0.1c2.7,0,4,0.6,4,1.8c0,0.8-0.2,1.4-0.5,1.9c-0.3,0.5-0.9,0.8-1.5,0.8
				c-1,0-1.8-0.3-2.3-0.8l-3.3-0.5h-0.5l-0.5,0.5v0.3c0.1,1.2,0.2,3.8,0.2,8.1c0,2.7,0,5.1-0.1,7.2l-0.1,7.2c0,2.7,0.1,5.4,0.3,8.2
				c0.1,1.6,0.4,2.6,1,3.1s1.7,0.8,3.4,0.8l1.8-0.1c0.6-0.1,1.3-0.1,2-0.1c2,0,3,0.4,3,1.3c0,1.2-1.5,1.8-4.5,1.8h-8.4
				C322.1,135.9,321.5,135.1,321.3,133.7z"/>
			<path class="st0" d="M372.7,134.9c0,0-0.1-0.2-0.4-0.6c-0.2-0.4-0.5-1-0.7-1.8c-0.1-0.5-0.2-1-0.4-1.4l0.1-0.3
				c-0.5-3.2-1.7-7.1-3.5-11.7l-1.8-5.3c-0.1-0.1-0.8-1.9-1.9-5.2l-0.8-2.4c-6.1-18.9-10-29.1-11.5-30.7c-0.5,1.8-0.8,4.2-0.8,7.1
				c0,1.6,0,2.9,0.1,4.1l0.1,4l-0.1,2.4c-0.1,0.8-0.1,1.6-0.1,2.4c0,1.5,0.1,2.8,0.2,3.9l0.2,3.3h-0.3c0,11.4,0.2,17.6,0.7,18.8v9.2
				c0.3,0.5,0.4,1.3,0.4,2.1c0,0.5-0.2,1-0.6,1.4c-0.4,0.4-0.8,0.6-1.4,0.6c-1.4,0-2.1-1.8-2.1-5.5l0.2-3.3c0.1-1,0.2-2.1,0.2-3.4
				c0-3.3-0.1-8.2-0.3-14.7c-0.2-6.5-0.3-11.4-0.3-14.7c0-2,0.1-5,0.3-9.1c0.2-4,0.3-7,0.3-9v-1.3c0-3.3,0.6-5.5,1.8-6.5l0.3,0.3
				l1-0.2c0.3,0.1,0.6,0.3,0.9,0.6c0.3,0.3,0.4,0.6,0.4,0.9l0.2,0.6c0,0.1,0,0.3,0.1,0.5c1.1,4.8,3.5,11.6,7.3,20.3
				c3.9,9.2,6.3,15.3,7.2,18.3c0.7,2.4,1.2,4.5,1.6,6.3c1.3,5.8,2.8,10.2,4.6,13.4l0.2-0.3c1.6-15.1,2.3-33.6,2.3-55.6l-0.1-1.2
				c-0.1-0.3-0.1-0.8-0.1-1.3c0-1.4,0.5-2.1,1.4-2.1c0.6,0,1.1,0.3,1.6,0.9c0.4,0.6,0.7,1.3,0.7,2v6.8l-0.5,0.8
				c0,6.5-0.4,17.1-1.1,31.8c-0.7,14.8-1.5,22.8-2.1,24.1l-1.7,0.4v0.1l-0.1-0.1l-1,0.3C373,134.9,372.7,134.9,372.7,134.9z"/>
		</g>
	</g>
</g>
</svg>
