<svg xmlns="http://www.w3.org/2000/svg" viewBox="0 0 279.32 264.2"><defs><style>.cls-1{fill:#5a913d;}.cls-2{fill:#517f37;}.cls-3{fill:#9a7159;}.cls-4{fill:#a37d68;}.cls-5{fill:#4b31aa;}.cls-6{fill:#e2ba74;}.cls-7{fill:#efc878;}.cls-8{fill:#7f492a;}.cls-9{fill:#d33c1e;}.cls-10{fill:#c63720;}.cls-11{fill:#fff;}</style></defs><title>tree-girl</title><g id="child_and_tree" data-name="child and tree"><g id="tree"><path class="cls-1" d="M268.58,258.6c-11.89,1.83-39.69,5.61-112.6,5.61-64.42,0-109.43-4.13-119.87-5.25-5.9-.64-10.71-3.64-10.71-7.68h0c0-4.05,4.81-7.32,10.74-7.32,0,0,58.61-4.35,116.22-4.26,57.27.09,116.22,4.26,116.22,4.26,5.93,0,10.74,3.27,10.74,7.32h0C279.32,255.32,274.94,257.61,268.58,258.6Z"/><path class="cls-2" d="M130.87,38C121,15.62,103,.64,82.44.64c-15.11,0-28.83,8.1-39,21.27a30,30,0,0,0-4.65-.38C17.39,21.53,0,44.72,0,73.34c0,28.21,9.44,57,30.47,57.61,10.35,18,33.9,23.74,52,23.74,16.45,0,31.25-9.6,41.58-24.9,20.37-2.87,36.14-22.68,36.14-46.71C160.16,61.82,147.82,43.86,130.87,38Z"/><path class="cls-1" d="M156.58,54.37a41.84,41.84,0,0,0-1.1-26.19c-9-23.71-38.25-34.6-65.21-24.31C75,9.69,63.75,21,58.47,34.09c-.25,0-.51,0-.76,0-18,0-32.51,17.38-32.51,38.81S50,111.26,68,111.26a95.92,95.92,0,0,0,11.62-.61c4.69,7.61,15,12.9,27.05,12.9,13.93,0,25.61-7.09,28.84-16.68a28.46,28.46,0,0,0,21.09-52.5Z"/><path class="cls-3" d="M85.93,251.84h-8.7a4.18,4.18,0,0,1-4.18-4.18s2.2-26.81,2.58-53.79c.35-25.56.8-46.06-1.59-49.62S57.3,132.69,55,130.37c-1-1-9.93,4.79-12.3,2.78-4.2-3.58,9.87-4.83,8-6.83-2.36-2.55-10-9.56-8.45-11.78,2-2.89,6.16,2.24,8.84,5.44A87.7,87.7,0,0,0,62.5,130c3.17,2.21,11.74,4.58,12.25,3.61.37-.68,1.84-1.26-.8-6.07-2.52-4.57-4-7.36-5-9.25-2.18-4-4.11-7.26-1.78-8.44,1.75-.88,3.74,1.84,7.45,8.41l3.46,6.11a10.42,10.42,0,0,0,5.54,4.82l2.3,6.28c2.3,0,1.46,2.21,1.46,4.51l0,107.81C87.37,250.06,88.23,251.84,85.93,251.84Z"/><path class="cls-4" d="M87.87,252a2.35,2.35,0,0,0,2.35-2.35S89,222.14,89,194.63c-.06-26.32-.24-47.53,1-51.49.79-2.6,8.45-9.11,10.07-10.87.52-.56,8.81,3.37,11,1.51,2.51-2.19-8.16-4.41-7.54-5.08,1.26-1.36,11.91-8.93,8.07-11.39-2.81-1.8-9.12,5.47-11.06,7.14-1.53,1.32-7.81,6-9.19,7.24-.75.69-2-.09-2-2.11a39.36,39.36,0,0,0,1-7.3c0-4.14-.15-6.62-.11-8.29.14-5.47,2.19-6.82-1.11-7.56-1.64-.37-2.06,1.28-2.59,8.49-.15,2.11-.38,4.78-.53,6.91a32.64,32.64,0,0,1-.37,3.58c-.07.53-.34,2-.65,3.27-.24,1-1.3.48-1.3.48-.12,1.75-.2,6.63-.2,6.63V252Z"/></g><g id="girl"><path class="cls-5" d="M228.65,178h-16.6a6.35,6.35,0,0,1-6.32-6.32l-6.57-31.41a6.34,6.34,0,0,1,6.32-6.32s11.6-1.21,15.47-1.21c3.31,0,13.25,1.21,13.25,1.21a6.34,6.34,0,0,1,6.32,6.32L235,171.69A6.35,6.35,0,0,1,228.65,178Z"/><path class="cls-6" d="M225.48,133a7.26,7.26,0,0,1-4.53,1.56,8.55,8.55,0,0,1-5.13-1.57s1.16-.48,1.16-1.45c0-2.67-.57-10.79-.57-10.79h9.07s-.75,8.11-.75,10.79A1.85,1.85,0,0,0,225.48,133Z"/><path class="cls-7" d="M249,90.35c0,8.4-6.93,23-8.85,24.85-2.1,2.07-10.62,9.36-19.23,9.36s-17.55-6.12-19.92-9.19c-1.49-1.93-8.17-16.62-8.17-25,0-18.9,11.89-27.92,27.41-27.92S249,71.45,249,90.35Z"/><path class="cls-8" d="M221,60.56c-8.85,0-30.12,3.32-30.13,27.06,0,6.9,5,16.13,5,16.13,1,0,.58-7.8,3.27-15.74,3.63-10.77,21.36-10.85,21.36-10.85s10.78-.6,16.49,3.91c6.64,5.26,6.21,18.47,9.43,21.36,0,0,3.83-10.08,3.72-14.81C249.53,65.29,227.93,60.56,221,60.56Z"/><rect class="cls-7" x="188.64" y="137.4" width="6.64" height="44.47" rx="3.32" transform="translate(80.87 -63.95) rotate(23.83)"/><path class="cls-8" d="M263.87,82.16c-2.1-10-6-15.32-11.92-13.68-2.38.66-8.3,6.38-8.3,6.38l1.72,6.71s3.42-4.64,5.53-4.71c3.13-.1,1.23,10,1.56,20.28.1,3.25,3.18,21.48,3.81,24.36h3.24S266,92.2,263.87,82.16Z"/><polygon class="cls-9" points="249.79 77.22 248.45 78.46 245.63 72.97 247.13 71.72 249.79 77.22"/><path class="cls-8" d="M176.18,82.16c2.1-10,6-15.32,11.92-13.68,2.38.66,8.3,6.38,8.3,6.38l-1.72,6.71s-3.42-4.64-5.53-4.71c-3.13-.1-1.23,10-1.56,20.28-.1,3.25-3.18,21.48-3.8,24.36h-3.46S174.07,92.2,176.18,82.16Z"/><polygon class="cls-9" points="190.53 77.36 192.05 78.59 194.47 73.07 192.92 71.72 190.53 77.36"/><rect class="cls-7" x="180.35" y="173.73" width="6.64" height="38.98" rx="3.32" transform="translate(6.31 -5.81) rotate(1.84)"/><path class="cls-7" d="M212.05,178h5a2.77,2.77,0,0,1,2.77,2.77V247a5.29,5.29,0,0,1-5.29,5.29h0a5.29,5.29,0,0,1-5.29-5.29V180.78a2.77,2.77,0,0,1,2.77-2.77Z"/><path class="cls-7" d="M224.8,178h5a2.77,2.77,0,0,1,2.77,2.77V247a5.29,5.29,0,0,1-5.29,5.29h0A5.29,5.29,0,0,1,222,247V180.78A2.77,2.77,0,0,1,224.8,178Z"/><rect class="cls-7" x="246.23" y="100.6" width="6.64" height="44.47" rx="3.32" transform="translate(422.56 340.6) rotate(-154.67)"/><rect class="cls-7" x="256.52" y="69.99" width="6.64" height="38.98" rx="3.32" transform="translate(505.87 211.93) rotate(-172.54)"/><ellipse class="cls-5" cx="201" cy="143.24" rx="9.7" ry="6.89" transform="translate(-23.55 245.69) rotate(-60)"/><polygon class="cls-5" points="198.34 158.21 188.26 148.97 193.32 145.64 199.16 152.31 198.34 158.21"/><ellipse class="cls-5" cx="242.95" cy="137.4" rx="9.7" ry="6.89" transform="translate(23.07 309.32) rotate(-67.51)"/><polygon class="cls-5" points="254.8 128.99 240.91 123.85 241.19 129.74 249.69 132.26 254.8 128.99"/><polygon class="cls-9" points="235.29 175.18 235.08 171.04 205.6 171.04 205.6 175.25 190.48 205.32 193.99 207.91 198.01 209.15 201.63 211.42 206.06 211.49 211.35 213.08 216.01 212.49 221.82 213.08 226.16 212.5 232.03 212.63 236.88 211.43 241.41 211.32 244.61 209.59 248.81 208.69 252.39 206.08 235.29 175.18"/><polygon class="cls-10" points="201.63 211.42 198.01 209.15 210.01 175.25 211.54 175.25 201.63 211.42"/><polygon class="cls-10" points="206.06 211.49 211.35 213.08 216.26 175.25 213.84 175.25 206.06 211.49"/><polygon class="cls-10" points="216.01 212.49 221.82 213.08 220.96 175.25 218.72 175.25 216.01 212.49"/><polygon class="cls-10" points="226.16 212.5 232.03 212.63 225.65 175.25 223.48 175.25 226.16 212.5"/><polygon class="cls-10" points="236.88 211.43 241.41 211.32 229.6 175.25 227.75 175.25 236.88 211.43"/><polygon class="cls-10" points="244.61 209.59 248.81 208.69 233.18 175.25 231.58 175.25 244.61 209.59"/><polygon class="cls-10" points="193.99 207.91 207.45 175.25 205.6 175.25 190.48 205.32 193.99 207.91"/><path class="cls-11" d="M225.48,133a7.26,7.26,0,0,1-4.53,1.56,8.55,8.55,0,0,1-5.13-1.57l-2.72.22a3.92,3.92,0,0,0,1.54,3c1.8,1.51,2.39,1.7,5,2l1.35-3.68,1.15,3.68a9.71,9.71,0,0,0,4.68-2.08,3.79,3.79,0,0,0,1.13-2.92Z"/></g></g></svg>