<svg xmlns="http://www.w3.org/2000/svg" viewBox="0 0 302.43 469.39"><defs><style>.cls-1{fill:#5a913d;}.cls-2{fill:#71af4e;}.cls-3{fill:#9a7159;}.cls-4{fill:#a37d68;}.cls-5{fill:#207e66;}.cls-10,.cls-5,.cls-6{fill-rule:evenodd;}.cls-6{fill:#27997c;}.cls-7{fill:#ff9d00;}.cls-8{fill:#ffce00;}.cls-9{fill:#fff;}.cls-10{fill:#248c71;}</style></defs><title>tree-and-bird</title><g id="bird"><path class="cls-1" d="M296.65,103c-8-38.47-40.54-64.32-76.43-60C212.82,22.7,193.9,6.13,170.61,1.46A100.1,100.1,0,0,0,153.68,0c-25.79,0-48.19,13.15-59.55,32.48-.84,0-1.68-.06-2.52-.06C47,32.42,10.9,63.85,10.9,102.63a62.27,62.27,0,0,0,6.64,27.89C6.51,143.68,0,159.89,0,177.42c0,44,41,79.69,91.61,79.69,4,0,14.72.54,23.07-.39a207.91,207.91,0,0,0,22.07-3.78s7.67-2.45,21-8c4.23.31,8.06.62,8.06.62l13.79-1a139.72,139.72,0,0,0,25,2.3c16.73,0,32.1-3.23,45-10,21.46-11.22,35.56-30.21,35.56-51.76a49.67,49.67,0,0,0-4.21-19.9C295,149.65,301.6,126.86,296.65,103Z"/><path class="cls-2" d="M300.77,103.15c-8.1-38.51-43.61-65.37-80-61-7.51-20.34-26.55-36-50.16-40.64-19.07,9.71-36,30.12-38.79,50.3-.85,0-1.7,0-2.56,0-45.19,0-72.91,28.3-66.89,59.7,1.79,9.32,9,24.29,13.28,32-11.18,11.88-17.81,26.35-17.81,42.17,0,39.74,40.64,59.07,91.94,59.07,1.92,0,6.19.26,10.12.54,4.28.31,8.17.63,8.17.63l10-1.19c8.62,1.57,21.07,3.16,29.21,3.16A100.1,100.1,0,0,0,253,237.12c21.76-11.23,36.06-30.25,36.06-51.82a49.07,49.07,0,0,0-4.27-19.91C299.13,149.82,305.79,127,300.77,103.15Z"/><path class="cls-3" d="M162.2,236.41c-.12-.91-.92-18.93-3.32-18.88-1.34,0-3.39.38-4.59-1.27-2.62-3.6-4.17-6.66-6.9-11.24-4.34-7.29-10.39-21.26-14.17-25.66-2.24-2.61-4.89-3.42-6.25-2.55-3.56,2.27,4.21,13.4,9.27,26.42,2.42,6.23,4.56,14.31,4.9,17.62.51,5-2.61,9.87-6.81,7.41-3.85-2.26-12.46-7-21.41-8.43-8.31-1.36-17.25-8.55-22.8-10.14-8-2.3-7.25.42-7.32,2.74-.1,3.06,6.61,8.37,18.89,14.63,5.77,2.94,15.85,6.22,20.49,8.6,4.15,2.13,9.09,4.67,11.51,7.7,1.83,2.3,5,7.67,5.66,13,1.7,14.57,1.64,22.88,1.66,53.13,0,32.85,1.28,64.81-7.85,75.17-5.24,5.93-10.65,3-20.24,11.62-4,3.53-10.75,10.69-15.48,14.12C89.69,416,83.18,413.32,71.05,424c-11.92,10.5-25.2,11-26.89,15.84-1.07,3.07,2.76,2.91,7,2.18s22.57-8.67,26-10.7c3.82-2.24,12.55-6.43,17.53-7.32,6.63-1.19,15.83-6,23.07-11s11.16-3.79,19.46-6.42c2.83-.9,5.06-2.82,5.75,1.06.43,2.45-.27,8.59-.64,10.08-1.74,7.07-3,9.32-4.66,12.32-2.33,4.21-9.09,11.89-11.49,16.41-5.49,10.34-14.94,20.29-10.49,22.81,2.24,1.28,6.56-6.36,7.94-8.13,2.16-2.81,6.5-7.56,10.85-13.41,5-6.69,4.86-5.73,8.62-9.57,5.93-6.07,10.91-18.83,12.06-23.75a14.8,14.8,0,0,1,5.83-8.76c3-3.16,1.81-2.32,1.81-2.32C169.42,403.3,163.22,244.34,162.2,236.41Z"/><path class="cls-4" d="M187,235.53c2.17-1.77,8.7-10.64,14.3-14.42s20.92-11.21,19.23-14c-2.13-3.44-9.25-.17-19.23,4.51-5.15,2.41-13.22,8.27-17.88,10.6-7.31,3.65-12.34,3.27-12.93,1.91-1.81-4.15.39-13.79,2.4-23.3,2.28-10.8,5.13-19.74,2.7-20.78-4.18-1.8-7.1,9.61-10.17,20.21-2.51,8.68-3.49,17.06-6.51,17.23v190s1.92-1.55,2.75-2.14c1-.72,2.12-1.87,3.61-1.94,2.85-.12,2.67.09,3.58.32,7.93,2,19,15.26,26.51,20.11a63.32,63.32,0,0,0,15.38,7c6.39,2.21,19.87,5,28.41,8.34,3.75,1.46,8.47,4.05,9.63,1.66s-7.21-4.41-17.4-10.47c-8-4.76-20.4-6.57-25.49-11.62-5.7-5.65-7.11-8.82-11-12.89-2.29-2.42-7.09-6.44-10.59-9.83-2-1.91-4.42-5.84-6.77-10-3.78-6.64-6.2-38.79-6.38-71.67-.15-26.38-.1-50.78.17-54.46C172,250.16,177.86,243,187,235.53Z"/><path id="back_wing_1" data-name="back wing 1" class="cls-5" d="M184.31,121.69a3.3,3.3,0,0,1,1.6-1.91,5.15,5.15,0,0,1-.67-3.39c.62-2.54,4-1.73,4-1.73s-.71-2.87-.16-4a5.88,5.88,0,0,1,1.86-2s6.79,13.47,9.15,16.54c2.6,3.38,10.4,10.52,10.4,10.52s-9.84,1.45-18.37-2.55a16.93,16.93,0,0,1-6.18-4.27,1.93,1.93,0,0,1,.23-2.73S184,123.78,184.31,121.69Z"/><path id="body" class="cls-6" d="M216.58,122.59c-4.16,0-7.57,2.3-8.77,5.55-3.66-1.52-8.83-2.06-14.38-1.22-4.86.74-10,3.19-11.87,4.88-.36.36-4.86,4.34-9,4.34a24.44,24.44,0,0,1-7.57-1.61c-.55-.23-2-.45-2.36,0-.53.63-.09,1.19.36,2.41a5.9,5.9,0,0,1-.09,2.16c-.29,1,.43,1.39.88,1.68,1,.63,3.5,0,4.66-.05a49.13,49.13,0,0,1,6.63,1.11,39.49,39.49,0,0,1,9.1,3c2.63,1.14,7.26,1.76,12.15,1,7.48-1.14,13.55-4.45,15.85-8.22a9.15,9.15,0,0,0,4.53,1,8,8,0,0,0,7.28-7.91C224,126.29,220.05,122.59,216.58,122.59Z"/><g id="beak"><path class="cls-7" d="M220.66,133.45a3.82,3.82,0,0,0,.71,1.46,2.2,2.2,0,0,0,.85.75,9.09,9.09,0,0,0,2.22,0l2-.3-5.8-1.89Z"/><path class="cls-8" d="M223.92,131.62a6.5,6.5,0,0,0-1.54.52,6.43,6.43,0,0,0-1.72,1.31l5.79,1.89s-.85-1.48-1.2-2C224.7,132.56,223.92,131.62,223.92,131.62Z"/></g><ellipse id="eye" class="cls-9" cx="220.34" cy="129.34" rx="0.94" ry="1.16"/><ellipse id="dot" cx="220.8" cy="129.55" rx="0.27" ry="0.35"/><path id="front_wing_1" data-name="front wing 1" class="cls-10" d="M175.62,124.49a3.59,3.59,0,0,1,1.36-2.36,5.58,5.58,0,0,1-1.35-3.52c.19-2.85,4-2.6,4-2.6s-1.3-3-.91-4.25a6.45,6.45,0,0,1,1.62-2.49s9.84,13.23,12.94,16.09c3.43,3.16,13.17,9.38,13.17,9.38s-10.32,3.4-20.26.7c-3.38-.92-5.86-2-7.45-3.45a2.11,2.11,0,0,1-.26-3S175.62,126.81,175.62,124.49Z"/></g></svg>