<svg id="Layer_1" data-name="Layer 1" xmlns="http://www.w3.org/2000/svg" viewBox="0 0 91.36 109.98"><defs><style>.cls-1{fill:none;}.cls-2{fill:#645242;}.cls-3{fill:#9a7159;}.cls-4{fill:#5a913d;}.cls-5{fill:#517f37;}</style></defs><title>puzzle</title><path class="cls-1" d="M28.88,34.5a1.07,1.07,0,0,1,.18.19A1.07,1.07,0,0,0,28.88,34.5Z"/><path class="cls-1" d="M47.39,24.39a6.56,6.56,0,0,1,2.72-.82A5.38,5.38,0,0,0,47.39,24.39Z"/><path class="cls-1" d="M57.18,29.4a3.38,3.38,0,0,0,1,.08h0c-2.65.08-3.71-2.56-3.79-2.7A4.55,4.55,0,0,0,57.18,29.4Z"/><path class="cls-1" d="M63,23.75c0-.28.06-.58.08-.9C63,23.16,63,23.46,63,23.75Z"/><path class="cls-1" d="M63.19,20.37A40.45,40.45,0,0,0,63,15.09,44.36,44.36,0,0,1,63.19,20.37Z"/><path class="cls-1" d="M79.39,42.43h0Z"/><path class="cls-1" d="M29.44,35.13l-.06-.08Z"/><path class="cls-2" d="M31.32,40.59a12.28,12.28,0,0,1-.57,3.71A10.9,10.9,0,0,0,31.32,40.59Z"/><path class="cls-3" d="M54,71.39c-.23-.26-2,.18-4,1.09-.44.16-.91.34-1.39.55a3.85,3.85,0,0,1-2.76-.73c-1.45-1.24-1.15-3.55-1.09-4a6.67,6.67,0,0,1,1.45-3.25,35.27,35.27,0,0,0,5.39-4.35c3.62-3.59,6.44-8.15,6.57-13.22a7,7,0,0,0-2.54-5.06,6.65,6.65,0,0,0-6.7-1.09A9.41,9.41,0,0,0,44.15,47a4.47,4.47,0,0,0-.16.81c.09-1.81-1.55-4.91-4.88-6.52a6.8,6.8,0,0,0-7.25,1.45,6.34,6.34,0,0,0-1.1,1.52A9.88,9.88,0,0,0,30.07,50a24,24,0,0,0,8.69,12.85c2.11,1.59,3.67,2.25,3.8,3.8.18,2,1.54,7.61-4.52,4.89-1.41-.27-4.19-.78-5.25-.54l-1.14.4c3.55.34,5.74.62,5.74,5.94-.26,3.87-.17,5.8-3,10.72-2.45,5.62-.7,8.77-3.51,13-4.39,1.93-7.73-1.23-12.47.35a4.29,4.29,0,0,0-2.81,2.81,27.48,27.48,0,0,0-.25,5.73H73a15.69,15.69,0,0,0-.17-5.25,6,6,0,0,0-1.66-2.39,4.06,4.06,0,0,0-1.47-.9c-4.74-1.58-7.55,1.4-12.11,0-3.87-3.69-.7-6.67-3.87-13.87a17.56,17.56,0,0,1-2.6-6.38,24,24,0,0,1-.2-3.28c-.36-5.27,1.58-5.79,4-6.32a5.55,5.55,0,0,0,1-.09h-.21A7.71,7.71,0,0,0,54,71.39Z"/><path class="cls-4" d="M38,71.57c6.07,2.72,4.7-2.9,4.53-4.89-.14-1.55-1.7-2.21-3.8-3.8A24,24,0,0,1,30.06,50a9.88,9.88,0,0,1,.69-5.73,12.28,12.28,0,0,0,.57-3.71,9.08,9.08,0,0,0-1.87-5.46l-.07-.08c-.1-.13-.21-.24-.31-.36l-.18-.19c-.13-.13-.25-.25-.39-.37a8.76,8.76,0,0,0-5.6-2.07c-3.48.15-4.25,2.77-4.06,3.65.14.61.3,1.81,3.43,3,6.42,2.4,2.93,8.79,0,8.79-.88.75-7.08,2.07-14.22-5.42-11.48.31-10,21.91.1,26.61a22,22,0,0,0,9,4.36c5.44,1.16,10.43-.39,13.43-1.29l1-.32,1.13-.4C33.83,70.79,36.63,71.3,38,71.57Z"/><path class="cls-5" d="M84.39,43.51a11.23,11.23,0,0,0-4.56-1.09h-.44a6.83,6.83,0,0,0-1.4.11,14.94,14.94,0,0,0-8.27,4.08c-2.8,4.59,2.24,6,3.58,4.14,4.59-2.13,5.63,1.64,5.82,2.69.34,3.13-2.57,4.36-5.7,3.91-5.26-.11-7.43-.44-12.09,0a25.08,25.08,0,0,0-5.71,1.46,27.1,27.1,0,0,0-4,1.9,35.21,35.21,0,0,1-5.39,4.34,6.81,6.81,0,0,0-1.51,3.25c-.06.43-.37,2.74,1.08,4a3.88,3.88,0,0,0,2.77.74c.48-.21.93-.4,1.39-.55,2-.91,3.75-1.36,4-1.09a7.4,7.4,0,0,1,1.76,0h.21a7.36,7.36,0,0,1,1.47.45,22.41,22.41,0,0,0,19.37,1.08C96.32,63.79,93.39,47.06,84.39,43.51Z"/><path class="cls-4" d="M63.19,20.37a11.74,11.74,0,0,1,0,1.32c0,.45,0,.78-.07,1.17a9,9,0,0,0-.08.9h0c0,3.39-2.51,5.76-4.83,5.68a2.83,2.83,0,0,1-1-.08,4.48,4.48,0,0,1-2.77-2.58c-1.11-2.49-2.77-3.21-4.24-3.2a6.56,6.56,0,0,0-2.73.82,16.57,16.57,0,0,0-6.42,9c-1.91,7,3.28,10.64,3.19,13.66a9.39,9.39,0,0,1,4.73-5.7,6.7,6.7,0,0,1,6.7,1.08,7,7,0,0,1,2.54,5.07c-.13,5.07-2.95,9.63-6.57,13.22a28.67,28.67,0,0,1,4-1.9,25.59,25.59,0,0,1,5.71-1.45c4.66-.45,6.83-.11,12.09,0,3.13.45,6-.78,5.71-3.92-.2-1-1.23-4.81-5.82-2.69-1.34,1.85-6.38.45-3.58-4.14A14.89,14.89,0,0,1,78,42.56c.54-.07,1.06-.1,1.41-.11h.44a11.14,11.14,0,0,1,4.58,1.07A20.17,20.17,0,0,0,63,15.1,40.3,40.3,0,0,1,63.19,20.37Z"/><path class="cls-5" d="M22.27,47.49c2.93,0,6.41-6.39,0-8.79-3.13-1.18-3.28-2.38-3.43-3-.19-.88.58-3.51,4.06-3.65a8.76,8.76,0,0,1,5.6,2.07c.13.12.26.24.38.37a1.07,1.07,0,0,1,.18.19c.11.12.22.23.32.36l.06.08a9,9,0,0,1,1.88,5.46,10.63,10.63,0,0,1-.58,3.71,6,6,0,0,1,1.13-1.51,6.78,6.78,0,0,1,7.24-1.48c3.33,1.61,5,4.71,4.89,6.52a4.3,4.3,0,0,1,.16-.81c.08-3-5.11-6.68-3.2-13.67a16.62,16.62,0,0,1,6.42-9,5.41,5.41,0,0,1,2.73-.82c1.47,0,3.14.71,4.24,3.21.07.14,1.13,2.78,3.79,2.7h0c2.32.07,4.8-2.3,4.83-5.69h0c0-.29.06-.59.08-.9s.06-.77.07-1.17,0-.88.05-1.31A44.53,44.53,0,0,0,63,15.07C57.21-6.1,27.52-4.65,25.39,17.43c-10-3.07-27.2,7.07-17.24,24.63H8C15.19,49.56,21.39,48.24,22.27,47.49Z"/></svg>