<svg xmlns="http://www.w3.org/2000/svg" viewBox="0 0 289.8 78.75"><defs><style>.cls-1{fill:#a37d68;}</style></defs><title>root-11</title><g id="root_1" data-name="root 1"><path class="cls-1" d="M1,3.66C17.72,11,35.59,15,53.21,19.37a339.09,339.09,0,0,0,50.35,8.47c45.05,4.26,91.78-2.09,135,14.26a100.09,100.09,0,0,1,29.57,17.42c6.71,5.65,12,12.56,18.22,18.65,1.84,1.79,4.67-1,2.83-2.83-5.32-5.18-9.83-11.1-15.33-16.12a100.35,100.35,0,0,0-23.58-16.45c-19.81-9.55-42-14-63.81-15.65-21.19-1.64-42.52-.7-63.74-1.87s-42.09-3.5-62.66-8.33C40.88,12.41,21.16,8.22,3.06.21.73-.82-1.31,2.62,1,3.66Z"/></g></svg>