<svg xmlns="http://www.w3.org/2000/svg" viewBox="0 0 336.83 96.49"><defs><style>.cls-1{fill:#a37d68;}</style></defs><title>root-2-medium</title><g id="root_2" data-name="root 2"><path class="cls-1" d="M3.48,96C22.65,79.56,46.39,71.15,71.3,68.83c23.12-2.17,46.41-2.85,69.6-3.53C190.47,63.84,242.83,69.24,289,47A104.3,104.3,0,0,0,317.86,26c6.87-6.93,12.06-15.1,18.43-22.44,1.68-1.94-1.14-4.78-2.83-2.83-5.38,6.2-9.81,13.14-15.35,19.21-7.5,8.22-16.15,15.71-26,21-23,12.49-50.4,17.81-76.39,19.25-24.64,1.36-49.44.38-74.12,1.1C118.37,62,95,62.65,71.82,64.78,45.58,67.19,20.84,75.86.65,93.14c-2,1.68.88,4.5,2.83,2.83Z"/></g></svg>