<svg xmlns="http://www.w3.org/2000/svg" viewBox="0 0 470.8 145.23"><defs><style>.cls-1{fill:#a37d68;}</style></defs><title>root-1</title><g id="root_1" data-name="root 1"><path class="cls-1" d="M1,3.71c26.85,13.8,56.33,21.2,85.17,29.53a485.61,485.61,0,0,0,85.13,16.23c38.22,4,76.4,3.19,114.72,4.72C323.26,55.68,361.18,62.75,395,78.9c16.76,8,31.27,19,44.4,32.17,10.38,10.38,18.32,22.63,28.06,33.52,1.72,1.93,4.54-.91,2.83-2.82-8.33-9.32-15.19-19.81-23.69-29-11-11.84-23.68-23-37.71-31.12-31.69-18.25-68.68-27-104.87-30.32-35.19-3.22-70.73-1.36-106-3.65-34.43-2.23-68.75-6.78-102.07-15.87C64.5,23.26,32.11,15.2,3,.26.74-.91-1.29,2.54,1,3.71Z"/></g></svg>