<svg xmlns="http://www.w3.org/2000/svg" viewBox="0 0 470.77 145.21"><defs><style>.cls-1{fill:#a37d68;}</style></defs><title>root-1</title><g id="root_1" data-name="root 1"><path class="cls-1" d="M1,3.69c26.85,13.8,56.33,21.2,85.17,29.53a485.61,485.61,0,0,0,85.13,16.23c38.22,4,76.41,3.19,114.72,4.72,37.23,1.49,75.15,8.56,108.92,24.71,16.76,8,31.27,19,44.4,32.17,10.38,10.38,18.32,22.63,28.06,33.52,1.72,1.93,4.54-.91,2.83-2.83-8.33-9.31-15.19-19.8-23.69-29-11-11.84-23.68-23-37.71-31.12-31.69-18.25-68.68-27-104.87-30.32C268.78,48.1,233.24,50,198,47.67,163.54,45.44,129.22,40.89,95.9,31.8,64.5,23.24,32.11,15.18,3,.24.74-.93-1.28,2.52,1,3.69Z"/></g></svg>