<svg xmlns="http://www.w3.org/2000/svg" viewBox="0 0 538.12 97.75"><defs><style>.cls-1{fill:#a37d68;}</style></defs><title>root-2</title><g id="root_2" data-name="root 2"><path class="cls-1" d="M3,97.5C36.84,79.15,75.18,71.91,113.28,69.67c36-2.12,72-2.81,108-3.5,38.6-.74,77.22-.12,115.8-1,39.41-.88,79.82-4.91,117.86-15.5A194.64,194.64,0,0,0,503.57,29.1c12.22-7.31,22.24-17,33.69-25.27,2.06-1.5.07-5-2-3.46-9.78,7.1-18.41,15.53-28.6,22.12a178.62,178.62,0,0,1-42.83,20.4C425.32,55.14,384,59.7,343.7,61c-38.26,1.25-76.6.33-114.88,1-36.54.66-73.11,1.39-109.61,3.31C78.36,67.48,37.34,74.32,1,94c-2.26,1.23-.25,4.69,2,3.46Z"/></g></svg>