<svg xmlns="http://www.w3.org/2000/svg" viewBox="0 0 323.36 100.83"><defs><style>.cls-1{fill:#a37d68;}</style></defs><title>root-3-medium</title><g id="root_3" data-name="root 3"><path class="cls-1" d="M1,3.88C17,15.32,35.29,21.92,53.45,29.17c15.11,6,30.32,11.17,46.28,14.51,26.12,5.45,52.82,7.1,79.44,7.48,21.09.31,41.43,1.42,61.81,7.39,28.34,8.29,57.47,20.93,78.92,41.72,1.85,1.79,4.69-1,2.83-2.83-18.53-18-42.49-29.62-66.59-38.17A202.72,202.72,0,0,0,192.8,47.39c-26.28-.68-52.42-.91-78.47-5.08a258.63,258.63,0,0,1-54.93-15C40,19.54,20.16,12.67,3,.42c-2.1-1.5-4.1,2-2,3.46Z"/></g></svg>