<svg xmlns="http://www.w3.org/2000/svg" viewBox="0 0 538.15 97.77"><defs><style>.cls-1{fill:#a37d68;}</style></defs><title>root-2</title><g id="root_2" data-name="root 2"><path class="cls-1" d="M3,97.5C36.85,79.15,75.19,71.91,113.29,69.67c36-2.11,72-2.8,108-3.5,38.6-.74,77.22-.11,115.8-1C376.54,64.32,417,60.29,455,49.7a195.23,195.23,0,0,0,48.59-20.59c12.22-7.32,22.24-17,33.69-25.28,2.07-1.49.07-5-2-3.45-9.78,7.1-18.41,15.53-28.6,22.11A178.28,178.28,0,0,1,463.82,42.9C425.33,55.15,384,59.71,343.71,61c-38.26,1.24-76.6.33-114.88,1-36.54.65-73.11,1.39-109.61,3.3C78.37,67.49,37.35,74.33,1,94.05c-2.26,1.23-.25,4.68,2,3.45Z"/></g></svg>