<svg xmlns="http://www.w3.org/2000/svg" viewBox="0 0 180.34 440.31"><defs><style>.cls-1{fill:#a37d68;}</style></defs><title>root-4-small</title><g id="root_4" data-name="root 4"><path class="cls-1" d="M41,437.85c-7.69-22.32-12.94-45.67-17.9-68.72C15,331.6,8.83,293.54,5.93,255.23c-2.88-38-3.27-77.47,6.19-114.62,4.68-18.4,12.22-36.37,24.49-51,11.8-14.1,27.25-24,44-31.29,17.8-7.8,36.62-13,54.4-20.81s33.48-18.77,45-34.59C181.45.8,178-1.2,176.49.86c-22.2,30.55-59.26,38.08-92.26,51.56C68.05,59,52.59,67.49,40.08,79.89,26.65,93.21,17.48,110.11,11.61,128-.2,163.94-.94,203.32,1,240.77c2,39.07,7.74,78,15.45,116.28C22,384.5,28,412.39,37.09,438.91c.84,2.42,4.7,1.38,3.86-1.06Z"/></g></svg>