<svg xmlns="http://www.w3.org/2000/svg" viewBox="0 0 437.28 494.55"><defs><style>.cls-1{fill:#a37d68;}</style></defs><title>root-4</title><g id="root_4" data-name="root 4"><path class="cls-1" d="M56.5,491.5c-6.32-14.2-11.19-29.12-15.92-43.91q-11.73-36.7-20.14-74.37c-12.94-57.86-22-119.94-12-179C13,167.4,22.17,140.61,40,119.6c18.27-21.51,43.61-35.23,70.36-43.26C135.55,68.78,161.9,65.81,188.1,65c19-.59,37.89.42,56.85.52,62.39.31,137.64,3.12,181.45-49.65,3.44-4.14,6.65-8.46,10.32-12.41,1.75-1.89-1.08-4.72-2.83-2.83-9,9.69-16.37,20.14-26.69,28.63C394,40.13,378.8,47,362.39,51.76a251.1,251.1,0,0,1-56.53,9.17c-17.77.89-35.6.25-53.39.51-18.65.26-37.29-.9-55.95-.63-25.75.36-51.67,2.58-76.72,8.8-26.27,6.52-51.85,17.75-72,36.16S15.21,148.82,8.45,175C-6.36,232.5.85,295,12,352.46c8.8,45.29,20.78,90.86,38,133.77,1,2.44,2,4.88,3.06,7.29s4.49.31,3.46-2Z"/></g></svg>