<svg xmlns="http://www.w3.org/2000/svg" viewBox="0 0 437.18 494.55"><defs><style>.cls-1{fill:#a37d68;}</style></defs><title>root-4</title><g id="root_4" data-name="root 4"><path class="cls-1" d="M56.4,491.49c-6.31-14.2-11.18-29.12-15.91-43.9q-11.73-36.7-20.14-74.38c-12.94-57.86-22-119.93-12-179,4.55-26.84,13.71-53.64,31.56-74.65,18.27-21.5,43.61-35.23,70.36-43.26C135.46,68.77,161.81,65.81,188,65c19-.59,37.89.43,56.85.52,62.39.31,137.64,3.13,181.45-49.64,3.44-4.15,6.65-8.47,10.32-12.42,1.74-1.88-1.08-4.72-2.83-2.83-9,9.69-16.37,20.14-26.69,28.64C393.9,40.13,378.71,47,362.3,51.75a250.54,250.54,0,0,1-56.53,9.17c-17.77.9-35.6.26-53.39.51-18.65.27-37.29-.89-55.95-.63-25.75.37-51.67,2.59-76.72,8.8-26.27,6.52-51.85,17.76-72,36.17s-32.6,43-39.36,69.26C-6.45,232.5.76,295,11.93,352.45c8.8,45.3,20.78,90.87,38,133.77,1,2.45,2,4.89,3.06,7.29s4.49.32,3.45-2Z"/></g></svg>