<svg xmlns="http://www.w3.org/2000/svg" viewBox="0 0 454 103.37"><defs><style>.cls-1{fill:#a37d68;}</style></defs><title>root-3</title><g id="root_3" data-name="root 3"><path class="cls-1" d="M1,3.7C26.17,16.62,53.66,23.83,80.68,31.63A499.16,499.16,0,0,0,145,46.13c36,5.42,72.47,7.08,108.86,7.46,28.61.31,56.77,1.19,84.9,7C377.4,68.48,418.42,80.12,451.1,103c2.11,1.48,4.11-2,2-3.45-28.75-20.15-63.87-31.16-97.66-39.36-28.5-6.91-57-10-86.28-10.45-61-.85-121.92-3.13-180.94-20.1C59.41,21.36,29.87,14,3,.25.75-.93-1.28,2.52,1,3.7Z"/></g></svg>