<svg xmlns="http://www.w3.org/2000/svg" viewBox="0 0 308.78 449.2"><defs><style>.cls-1{fill:#a37d68;}</style></defs><title>root-4-medium</title><g id="root_4" data-name="root 4"><path class="cls-1" d="M41,446.74c-11.23-32.6-18.18-67.15-24.3-101C7.4,294.54,1.16,241.57,5.63,189.54c2-23.07,6.22-46.66,16.23-67.71A117.26,117.26,0,0,1,73.61,68c18.8-9.85,39.8-15,60.81-17.23,14-1.49,27.94-1.08,41.93-1.89,21.88-1.27,43.84-5.32,65-10.79,20.43-5.28,43.86-11.94,59.91-26.41A35.37,35.37,0,0,0,308.43,3c1.28-2.24-2.18-4.26-3.45-2-4.59,8-13,13.32-21,17.52-10.6,5.57-22,9.55-33.47,12.93a349.05,349.05,0,0,1-69.15,13.1c-14.16,1.19-28.39.57-42.55,1.83-20,1.76-39.8,5.88-58.23,13.9-22,9.58-41.06,25-54.18,45.19-13,20-19.42,43.34-22.78,66.72C-3.72,223.25,1.36,276,9.38,326.65c6.12,38.7,14.09,77.58,25.72,115,.64,2.05,1.3,4.1,2,6.13.84,2.42,4.7,1.38,3.86-1.07Z"/></g></svg>