<svg xmlns="http://www.w3.org/2000/svg" viewBox="0 0 454 103.37"><defs><style>.cls-1{fill:#a37d68;}</style></defs><title>root-3</title><g id="root_3" data-name="root 3"><path class="cls-1" d="M1,3.69C26.16,16.62,53.65,23.82,80.67,31.62A499.57,499.57,0,0,0,145,46.13c36,5.42,72.47,7.07,108.86,7.46,28.62.3,56.77,1.18,84.91,6.95C377.4,68.48,418.42,80.12,451.09,103c2.12,1.48,4.12-2,2-3.45-28.74-20.14-63.87-31.16-97.66-39.35a385.84,385.84,0,0,0-86.28-10.46c-61-.85-121.92-3.12-180.93-20.1C59.41,21.35,29.86,14,3,.24.74-.93-1.28,2.52,1,3.69Z"/></g></svg>