<svg xmlns="http://www.w3.org/2000/svg" viewBox="0 0 279.32 264.22"><defs><style>.cls-1{fill:#5a913d;}.cls-2{fill:#4f7736;}.cls-3{fill:#517f37;}.cls-4{fill:#9a7159;}.cls-5{fill:#a37d68;}.cls-6{fill:#4b31aa;}.cls-7{fill:#e2ba74;}.cls-8{fill:#efc878;}.cls-9{fill:#7f492a;}.cls-10{fill:#d33c1e;}.cls-11{fill:#c63720;}.cls-12{fill:#fff;}</style></defs><title>tree-girl</title><g id="child_and_tree" data-name="child and tree"><g id="tree"><path class="cls-1" d="M268.58,258.6c-11.89,1.84-39.69,5.62-112.6,5.62-64.42,0-109.43-4.13-119.87-5.26-5.9-.63-10.71-3.63-10.71-7.68h0c0-4,4.81-7.32,10.74-7.32,0,0,58.61-4.34,116.22-4.25,57.27.09,116.22,4.25,116.22,4.25,5.93,0,10.74,3.28,10.74,7.32h0C279.32,255.33,274.94,257.62,268.58,258.6Z"/><path class="cls-2" d="M130.87,38C121,15.62,103,.64,82.44.64c-15.11,0-28.83,8.11-39,21.28a28.8,28.8,0,0,0-4.65-.39C17.39,21.53,0,44.73,0,73.34c0,28.22,9.44,57,30.47,57.62,10.35,18,33.9,23.73,52,23.73,16.45,0,31.25-9.59,41.58-24.89,20.37-2.87,36.14-22.68,36.14-46.72C160.16,61.83,147.82,43.87,130.87,38Z"/><path class="cls-3" d="M142,111.53a29.71,29.71,0,0,1-7.93-1.08c-3.36,9.91-15.51,17.24-30,17.24-12.5,0-23.27-5.47-28.14-13.34a99.65,99.65,0,0,1-12.1.64c-18.68,0-43.23-19.84-43.23-42S35.63,31.46,55.77,31.75l.79,0C62.05,18.31,71.12,10,87,4a63.16,63.16,0,0,1,6.18-2A42.2,42.2,0,0,0,82.44.64c-15.11,0-28.83,8.11-39,21.28a28.8,28.8,0,0,0-4.65-.39C17.39,21.53,0,44.73,0,73.34c0,28.22,9.44,57,30.47,57.62,10.35,18,33.9,23.73,52,23.73,16.45,0,31.25-9.59,41.58-24.89,12.12-1.71,22.62-9.42,29.13-20.45A29.71,29.71,0,0,1,142,111.53Z"/><path class="cls-1" d="M156.58,54.38a41.84,41.84,0,0,0-1.1-26.19c-9-23.72-38.25-34.6-65.21-24.31C75,9.7,63.75,21.05,58.47,34.1c-.25,0-.51,0-.76,0-18,0-32.51,17.38-32.51,38.81S50,111.27,68,111.27a93.9,93.9,0,0,0,11.62-.62c4.69,7.62,15,12.91,27.05,12.91,13.93,0,25.61-7.1,28.84-16.68a28.46,28.46,0,0,0,21.09-52.5Z"/><path class="cls-4" d="M85.93,251.84h-8.7a4.17,4.17,0,0,1-4.18-4.17s2.2-26.81,2.58-53.79c.35-25.56.8-46.06-1.59-49.62S57.3,132.7,55,130.38c-1-1-9.93,4.79-12.3,2.77-4.2-3.58,9.87-4.82,8-6.82-2.36-2.55-10-9.56-8.45-11.78,2-2.9,6.16,2.24,8.84,5.43A87.78,87.78,0,0,0,62.5,130c3.17,2.21,11.74,4.57,12.25,3.61.37-.69,1.84-1.27-.8-6.07-2.52-4.58-4-7.36-5-9.26-2.18-4-4.11-7.26-1.78-8.43,1.75-.89,3.74,1.83,7.45,8.41l3.46,6.11a10.42,10.42,0,0,0,5.54,4.82l2.3,6.28c2.3,0,1.46,2.21,1.46,4.51l0,107.81C87.37,250.07,88.23,251.84,85.93,251.84Z"/><path class="cls-5" d="M87.87,252a2.35,2.35,0,0,0,2.35-2.35S89,222.15,89,194.63c-.06-26.31-.24-47.52,1-51.48.79-2.61,8.45-9.11,10.07-10.87.52-.56,8.81,3.37,11,1.51,2.51-2.19-8.16-4.41-7.54-5.08,1.26-1.36,11.91-8.93,8.07-11.4-2.81-1.8-9.12,5.47-11.06,7.14-1.53,1.33-7.81,6-9.19,7.25-.75.69-2-.1-2-2.12a39.06,39.06,0,0,0,1-7.3c0-4.13-.15-6.61-.11-8.28.14-5.48,2.19-6.82-1.11-7.56-1.64-.37-2.06,1.27-2.59,8.48-.15,2.11-.38,4.79-.53,6.91a32.57,32.57,0,0,1-.37,3.59c-.07.52-.34,2-.65,3.27-.24,1-1.3.48-1.3.48-.12,1.74-.2,6.63-.2,6.63V252Z"/></g><g id="girl"><path class="cls-6" d="M228.65,178h-16.6a6.34,6.34,0,0,1-6.32-6.32l-6.57-31.4a6.34,6.34,0,0,1,6.32-6.32s11.6-1.21,15.47-1.21c3.31,0,13.25,1.21,13.25,1.21a6.34,6.34,0,0,1,6.32,6.32L235,171.69A6.34,6.34,0,0,1,228.65,178Z"/><path class="cls-7" d="M225.48,133A7.26,7.26,0,0,1,221,134.6a8.55,8.55,0,0,1-5.13-1.57s1.16-.48,1.16-1.46c0-2.66-.57-10.79-.57-10.79h9.07s-.75,8.12-.75,10.79A1.85,1.85,0,0,0,225.48,133Z"/><path class="cls-8" d="M249,90.35c0,8.41-6.93,23-8.85,24.86-2.1,2.07-10.62,9.36-19.23,9.36s-17.55-6.13-19.92-9.19c-1.49-1.93-8.17-16.62-8.17-25,0-18.89,11.89-27.91,27.41-27.91S249,71.46,249,90.35Z"/><path class="cls-9" d="M221,60.57c-8.85,0-30.12,3.31-30.13,27.06,0,6.89,5,16.13,5,16.13,1,0,.58-7.81,3.27-15.75,3.63-10.76,21.36-10.85,21.36-10.85s10.78-.59,16.49,3.92c6.64,5.25,6.21,18.47,9.43,21.35,0,0,3.83-10.08,3.72-14.8C249.53,65.3,227.93,60.57,221,60.57Z"/><rect class="cls-8" x="188.64" y="137.4" width="6.64" height="44.47" rx="3.32" transform="translate(80.87 -63.95) rotate(23.83)"/><path class="cls-9" d="M263.87,82.16c-2.1-10-6-15.32-11.92-13.68-2.38.67-8.3,6.39-8.3,6.39l1.72,6.71s3.42-4.64,5.53-4.71c3.13-.1,1.23,10,1.56,20.27.1,3.26,3.18,21.49,3.81,24.36h3.24S266,92.2,263.87,82.16Z"/><polygon class="cls-10" points="249.79 77.23 248.45 78.46 245.63 72.97 247.13 71.73 249.79 77.23"/><path class="cls-9" d="M176.18,82.16c2.1-10,6-15.32,11.92-13.68,2.38.67,8.3,6.39,8.3,6.39l-1.72,6.71s-3.42-4.64-5.53-4.71c-3.13-.1-1.23,10-1.56,20.27-.1,3.26-3.18,21.49-3.8,24.36h-3.46S174.07,92.2,176.18,82.16Z"/><polygon class="cls-10" points="190.53 77.37 192.05 78.59 194.47 73.08 192.92 71.73 190.53 77.37"/><rect class="cls-8" x="180.35" y="173.74" width="6.64" height="38.98" rx="3.32" transform="translate(6.31 -5.81) rotate(1.84)"/><path class="cls-8" d="M212.05,178h5a2.77,2.77,0,0,1,2.77,2.77V247a5.29,5.29,0,0,1-5.29,5.29h0a5.29,5.29,0,0,1-5.29-5.29V180.78A2.77,2.77,0,0,1,212.05,178Z"/><path class="cls-8" d="M224.8,178h5a2.77,2.77,0,0,1,2.77,2.77V247a5.29,5.29,0,0,1-5.29,5.29h0A5.29,5.29,0,0,1,222,247V180.78A2.77,2.77,0,0,1,224.8,178Z"/><rect class="cls-8" x="246.23" y="100.6" width="6.64" height="44.47" rx="3.32" transform="translate(422.56 340.62) rotate(-154.67)"/><rect class="cls-8" x="256.52" y="69.99" width="6.64" height="38.98" rx="3.32" transform="translate(505.87 211.95) rotate(-172.54)"/><ellipse class="cls-6" cx="201" cy="143.25" rx="9.7" ry="6.89" transform="translate(-23.56 245.7) rotate(-60)"/><polygon class="cls-6" points="198.34 158.22 188.26 148.98 193.32 145.65 199.16 152.32 198.34 158.22"/><ellipse class="cls-6" cx="242.95" cy="137.41" rx="9.7" ry="6.89" transform="translate(23.06 309.32) rotate(-67.51)"/><polygon class="cls-6" points="254.8 129 240.91 123.86 241.19 129.74 249.69 132.27 254.8 129"/><polygon class="cls-10" points="235.29 175.19 235.08 171.05 205.6 171.05 205.6 175.26 190.48 205.32 193.99 207.91 198.01 209.15 201.63 211.42 206.06 211.5 211.35 213.09 216.01 212.49 221.82 213.09 226.16 212.5 232.03 212.63 236.88 211.43 241.41 211.32 244.61 209.6 248.81 208.7 252.39 206.09 235.29 175.19"/><polygon class="cls-11" points="201.63 211.42 198.01 209.15 210.01 175.26 211.54 175.26 201.63 211.42"/><polygon class="cls-11" points="206.06 211.5 211.35 213.09 216.26 175.26 213.84 175.26 206.06 211.5"/><polygon class="cls-11" points="216.01 212.49 221.82 213.09 220.96 175.26 218.72 175.26 216.01 212.49"/><polygon class="cls-11" points="226.16 212.5 232.03 212.63 225.65 175.26 223.48 175.26 226.16 212.5"/><polygon class="cls-11" points="236.88 211.43 241.41 211.32 229.6 175.26 227.75 175.26 236.88 211.43"/><polygon class="cls-11" points="244.61 209.6 248.81 208.7 233.18 175.26 231.58 175.26 244.61 209.6"/><polygon class="cls-11" points="193.99 207.91 207.45 175.26 205.6 175.26 190.48 205.32 193.99 207.91"/><path class="cls-12" d="M225.48,133A7.26,7.26,0,0,1,221,134.6a8.55,8.55,0,0,1-5.13-1.57l-2.72.22a3.93,3.93,0,0,0,1.54,3c1.8,1.51,2.39,1.7,5,2L221,134.6l1.15,3.68a9.8,9.8,0,0,0,4.68-2.08,3.81,3.81,0,0,0,1.13-2.93Z"/></g></g></svg>